<svg width="514" height="319" viewBox="0 0 514 319" fill="none" xmlns="http://www.w3.org/2000/svg">
<path d="M283.912 18.3994L325.445 44.9306L322.064 69.9739L301.065 80.2155L279.249 67.4619L283.912 18.3994ZM283.912 18.3994L299.451 50.258M56.2452 165.98L42.5201 184.871L61.4111 198.596M94.0271 193.43L107.752 174.539L88.8613 160.814M78.77 149.875L71.5023 209.536M156.926 279.93L154.287 242.192C154.175 240.589 155.37 239.199 156.957 239.089L202.934 235.873C204.522 235.762 205.899 236.972 206.011 238.575L208.65 276.313M156.926 279.93L153.231 280.188C151.191 280.331 149.652 282.101 149.795 284.141L150.053 287.836C150.196 289.876 151.966 291.415 154.006 291.272L213.119 287.138C215.16 286.996 216.698 285.226 216.556 283.185L216.297 279.491C216.155 277.45 214.385 275.912 212.344 276.055L208.65 276.313M156.926 279.93L208.65 276.313M169.637 249.34L179.981 257.898L170.929 267.813M185.707 266.779L193.096 266.263M495.206 240.17L488.119 251.692C487.408 252.787 486.671 253.403 485.712 253.453C485.233 253.478 484.648 253.316 484.052 252.963C478.599 249.788 466.228 243.034 461.178 240.223C460.583 239.869 459.967 239.133 459.922 238.27C459.897 237.79 460.064 237.301 460.513 236.701L467.16 227.797C462.416 230.833 458.132 233.461 456.265 234.52L455.705 234.838L457.427 251.186C457.487 252.336 456.77 253.335 455.62 253.396L436.502 255.455C435.447 255.51 434.448 254.794 434.292 253.648L426.161 175.535L426.151 175.343C426.1 174.384 426.918 173.476 427.872 173.33L446.995 171.367L447.187 171.356C448.241 171.301 449.054 172.124 449.205 173.173L453.449 213.807C457.219 210.533 473.065 197.398 477.283 197.177C478.05 197.137 478.933 197.475 479.766 198.681L488.401 211.206C488.815 211.761 489.036 212.326 489.067 212.902C489.117 213.86 488.587 214.753 487.466 215.389C485.13 216.665 479.821 219.923 474.235 223.388C481.056 225.146 495.591 234.67 495.777 238.217C495.807 238.792 495.645 239.378 495.206 240.17ZM412.264 207.296L407.752 218.912C407.368 220.064 406.312 221.024 405.16 221.024C404.776 221.024 404.296 220.832 403.912 220.544C402.184 219.104 398.824 218.048 395.464 218.048C392.968 218.048 384.616 218.624 384.616 229.088C384.616 235.52 389.224 239.744 395.464 239.744C399.592 239.744 404.392 237.92 409 233.696C409.576 233.12 410.44 232.64 411.304 232.64C411.976 232.64 412.744 233.024 413.416 234.176C415.144 237.44 416.296 239.168 417.832 242.336C418.12 242.912 418.312 243.584 418.312 244.256C418.312 245.408 417.832 246.464 416.68 247.616C408.904 255.008 399.688 258.272 391.048 258.272C375.112 258.272 361 247.136 361 230.24C361 208.736 378.184 200 394.024 200C404.68 200 412.36 204.224 412.36 206.624C412.36 206.816 412.36 207.104 412.264 207.296ZM367.489 257.522L368.142 270.557C368.21 272.403 367.811 273.631 366.73 274.255C365.898 274.735 359.311 276.765 352.898 275.257C349.871 279.998 345.957 283.588 341.717 286.036C327.833 294.052 309.717 290.322 301.989 276.937C296.229 266.96 294.992 248.497 311.453 238.993C315.61 236.593 320.212 235.156 324.27 234.697C324.433 233.827 325.037 233.146 326.035 232.57L326.451 232.33L341.554 225.273C343.811 224.191 345.017 224.936 345.593 225.933L345.833 226.349C349.037 234.587 352.049 242.492 355.217 247.979C358.097 252.967 361.076 256.014 364.552 255.892C365.624 255.827 366.826 255.798 367.306 256.629C367.402 256.796 367.463 257.093 367.489 257.522ZM339.625 265.517C338.128 263.499 336.617 261.267 335.129 258.69C333.881 256.528 332.669 254.236 331.395 251.645C329.437 250.559 326.521 250.691 324.109 252.083C318.872 255.107 308.052 264.76 310.5 269C313.188 273.656 329.572 272.873 334.976 269.753C336.556 268.841 338.193 267.452 339.625 265.517ZM301.157 289.428L292.582 297.534C291.589 298.47 290.651 298.824 289.789 298.884C289.406 298.911 271.462 296.894 270.102 277.453C269.292 265.866 263.641 262.123 256.746 262.605L256.267 262.638L258.698 297.402C258.778 298.551 257.977 299.473 256.923 299.547L237.77 300.886C236.621 300.966 235.699 300.165 235.618 299.015L209.906 213.807C209.832 212.754 230.862 218.607 232.011 218.527L251.164 217.188C252.218 217.114 253.147 218.011 253.22 219.065L254.961 243.964C256.104 243.788 257.253 243.708 258.306 243.634C276.31 242.375 291.425 252.096 293.039 271.038C293.57 277.256 295.149 281.957 300.103 285.364C300.711 285.803 301.832 286.687 301.905 287.74C301.939 288.219 301.787 288.807 301.157 289.428ZM230.395 202.231L229.423 201.819C227.479 200.993 226.745 200.265 226.853 198.537L227.316 186.636C227.34 186.334 227.364 186.031 227.439 185.854C228.002 184.529 229.844 185.102 230.904 185.552C236.156 187.677 239.68 186.253 240.58 184.132C241.068 182.983 240.519 181.082 239.957 178.966L238.697 175.302C236.684 169.233 236.706 164.758 238.132 161.4C242.371 151.415 259.025 152.227 270.601 157.141C274.048 158.604 274.781 159.332 274.725 161.185L274.35 173.124C274.377 173.553 274.264 173.818 274.152 174.083C273.739 175.055 272.617 174.996 271.468 174.508L271.115 174.358C265.813 172.107 263.03 173.012 262.28 174.779C261.642 176.282 262.255 178.523 264.038 183.66C266.227 189.804 266.306 194.531 264.881 197.889C260.455 208.316 242.236 207.258 230.395 202.231ZM217.412 185.223L215.117 198.072C214.767 199.885 214.102 200.992 212.908 201.357C211.99 201.637 205.115 202.133 199.206 199.222C195.19 203.16 190.569 205.777 185.887 207.209C170.555 211.896 153.743 204.187 149.224 189.406C145.856 178.389 148.803 160.121 166.981 154.564C171.571 153.161 176.378 152.795 180.436 153.261C180.79 152.45 181.532 151.922 182.634 151.585L183.093 151.445L199.396 147.966C201.839 147.42 202.847 148.417 203.184 149.519L222 144.922C223.269 153.67 205.75 167.105 207.602 173.164C209.286 178.673 211.503 182.311 214.918 182.974C215.976 183.152 217.154 183.394 217.435 184.312C217.491 184.496 217.484 184.8 217.412 185.223ZM188.464 186.745C187.459 184.442 186.49 181.928 185.62 179.082C184.89 176.695 184.224 174.188 183.565 171.378C181.902 169.879 179.031 169.351 176.368 170.165C170.585 171.933 159.569 166.696 161 171.378C162.572 176.519 177.014 191.651 182.982 189.827C184.726 189.293 186.634 188.309 188.464 186.745ZM229.058 126.34L209.906 123.988C208.857 123.859 208.105 122.897 208.234 121.848L217.792 44.0011C217.933 42.8577 218.896 42.1054 219.944 42.2341L239.096 44.5857C240.144 44.7144 240.896 45.6772 240.756 46.8207L231.197 124.668C231.069 125.716 230.106 126.468 229.058 126.34ZM203.016 95.0881C203.016 113.808 184.008 124.272 170.376 124.272C154.728 124.272 141 112.944 141 96.0481C141 76.2721 155.784 66.0001 172.68 66.0001C193.896 66.0001 203.016 82.6081 203.016 95.0881ZM172.68 105.936C179.496 105.936 182.568 100.368 182.568 94.8961C182.568 93.0721 182.184 83.7601 172.392 83.7601C164.328 83.7601 207 90.5761 207 94.8961C207 101.52 167.208 105.936 172.68 105.936ZM136.016 88.0881C136.016 106.808 117.008 117.272 103.376 117.272C87.7279 117.272 73.9999 105.944 73.9999 89.0481C73.9999 69.2721 88.7839 59.0001 105.68 59.0001C126.896 59.0001 136.016 75.6081 136.016 88.0881ZM105.68 98.9361C112.496 98.9361 115.568 93.3681 115.568 87.8961C115.568 86.0721 115.184 76.7601 105.392 76.7601C97.3279 76.7601 144.5 79.4401 144.5 83.7601C144.5 90.3841 100.208 98.9361 105.68 98.9361ZM60.6677 80.9247L60.4007 93.3833C60.4339 94.5972 59.7699 95.8605 58.6874 96.2545C58.3265 96.3858 57.8098 96.3696 57.3505 96.2303C55.2342 95.4681 51.7156 95.625 48.5583 96.7742C46.2128 97.6279 38.5615 101.026 42.1404 110.859C44.3403 116.903 50.1151 119.296 55.9787 117.162C59.8578 115.75 63.7445 112.394 66.6299 106.849C66.9741 106.111 67.6219 105.364 68.4338 105.069C69.0652 104.839 69.9183 104.937 70.9437 105.79C73.6839 108.266 75.3574 109.496 77.8843 111.947C78.3519 112.39 78.7622 112.956 78.992 113.587C79.386 114.67 79.2962 115.826 78.6076 117.303C73.8288 126.908 66.2849 133.128 58.166 136.083C43.1911 141.533 26.1214 135.895 20.3426 120.018C12.9878 99.8111 26.1476 85.7247 41.0323 80.3071C51.0457 76.6625 59.7072 78.0051 60.5281 80.2603C60.5938 80.4408 60.6923 80.7114 60.6677 80.9247ZM296.866 82.2638L326.263 67.9256L332.408 80.5246L303.011 94.8627L296.866 82.2638ZM308.595 58.3476C307.407 61.7983 303.647 63.6324 300.196 62.4442C296.745 61.2561 294.911 57.4956 296.099 54.0449C297.287 50.5943 301.048 48.7602 304.499 49.9483C307.949 51.1365 309.783 54.897 308.595 58.3476ZM364.192 130.495L365.126 129.692C367.389 121.8 371.827 119.86 376.418 118.687C375.199 117.975 373.989 117.281 374.129 115.54C372.032 114.23 371.984 113.145 371.949 112.064C371.394 111.543 370.04 110.098 370.608 108.119C369.813 107.181 369.446 106.005 370.141 104.786C369.538 103.18 369.503 102.099 370.102 101.213C369.272 99.1951 370.206 98.3921 370.822 97.4976C370.407 95.2365 371.953 93.5518 374.478 94.6234C375.919 93.2564 378.44 94.3408 378.772 94.4359C379.279 93.872 380.038 93.7281 381.576 94.5307C383.494 94.0095 384.796 94.3828 385.909 95.4116C387.919 94.569 388.618 95.8405 389.509 96.4436C391.662 96.3517 391.697 97.4329 392.588 98.036C394.646 98.2783 395.013 99.4546 395.715 100.713L396.685 100.991C399.162 103.482 399.66 107.909 399.84 109.741C401.058 107.948 403.412 104.701 407.151 103.992L408.121 104.27C409.384 103.575 410.319 102.772 412.192 103.657C413.267 103.618 413.87 102.72 415.647 103.939C416.39 103.804 417.137 103.657 418.12 103.938C418.452 104.033 418.675 104.459 419.246 104.971C420.736 104.689 422.038 105.062 422.737 106.333C424.466 106.468 424.929 107.31 425.165 107.739C425.497 107.834 428.197 108.247 428.708 110.174C431.748 110.698 432.154 112.942 430.617 114.643C430.984 115.82 431.115 116.567 429.246 118.173C429.709 119.015 429.013 120.234 427.415 120.847C427.371 122.253 426.755 123.148 425.17 123.764C425.017 125.501 422.781 125.93 422.261 126.491C421.658 127.389 421.042 128.283 418.57 128.284C417.766 129.834 416.372 129.782 414.962 129.739C418.552 133.258 420.876 137.485 418.705 145.056L419.073 146.232C422.807 150.502 424.414 160.936 415.709 166.632C414.718 168.838 413.595 170.296 412.376 172.089C409.227 179.364 401.972 181.206 400.242 181.072C397.394 182.384 394.306 183.278 390.34 183.574C386.129 185.927 382.154 186.206 378.567 185.178C374.968 184.146 371.745 181.803 369.421 177.576C366.214 175.223 364.07 172.828 362.349 170.206C360.811 169.404 355.635 163.997 356.832 156.162C356.736 153.992 356.557 152.16 356.565 149.673C351.551 140.042 358.443 132.046 364.192 130.495ZM368.809 130.386C368.197 133.772 387.937 124.132 385.416 123.047C378.275 119.581 370.848 122.069 368.809 130.386ZM395.467 102.784C395.279 103.439 394.864 103.682 394.772 104.003C394.069 102.745 393.702 101.569 393.003 100.297C392.815 100.953 393.038 101.378 392.2 101.847C391.832 100.671 391.369 99.8286 390.243 98.7962C390.623 99.9762 389.867 100.107 389.452 100.35C388.657 99.4126 388.198 98.5576 386.752 97.4337C386.883 98.1806 387.451 98.7051 386.6 99.1703C385.818 98.2367 385.25 97.7122 383.153 96.4016C383.297 97.1522 384.184 97.7682 383.664 98.3285C382.773 97.7254 381.567 97.018 380.349 96.3068C380.821 97.1655 381.38 97.6734 380.633 97.821C379.414 97.1099 378.3 96.0811 376.479 96.2681L377.178 97.5396C377.178 97.5396 374.88 96.8808 373.247 96.4124C373.626 97.5923 374.089 98.4345 374.033 99.8369C374.033 99.8369 373.063 99.5588 372.399 99.3685C372.495 101.538 373.701 102.246 373.845 102.996C373.421 103.222 372.77 103.036 371.879 102.433C372.154 103.93 372.949 104.867 373.648 106.139C373.22 106.378 372.901 106.286 372.014 105.67C372.713 106.942 373.495 107.876 374.194 109.147C373.78 109.39 373.116 109.199 372.465 109.013C373.168 110.271 374.61 111.408 375.724 112.437C375.216 113.001 374.661 112.48 374.33 112.385C375.121 113.335 376.566 114.459 377.776 115.154C377.361 115.396 376.934 115.635 376.283 115.449C377.636 116.894 380.109 116.893 380.572 117.736C380.476 118.07 379.729 118.217 379.305 118.443C381.922 119.194 388.788 121.163 391.597 116.279C389.832 112.56 386.206 107.96 379.265 101.337C384.805 105.429 389.937 109.739 393.384 115.011C399.359 113.873 397.66 106.264 395.467 102.784ZM395.878 123.557C391.96 122.434 386.211 123.984 385.36 126.953C384.608 129.575 387.627 132.583 392.859 134.083C398.092 135.584 402.434 133.978 403.094 131.677C403.754 129.376 400.447 124.867 395.878 123.557ZM416.381 127.294C415.717 127.104 415.491 126.691 415.254 126.262C417.076 126.075 418.806 126.209 420.072 125.501C419.421 125.315 419.089 125.22 418.531 124.712C420.02 124.429 421.527 124.138 423.109 123.535C422.458 123.348 421.807 123.161 421.571 122.732C422.741 122.358 424.008 121.65 425.179 121.277C424.196 120.995 423.864 120.9 423.545 120.808C424.895 119.763 426.065 119.389 427.092 118.265C426.349 118.399 425.698 118.213 425.139 117.705C425.646 117.141 427.376 117.275 428.511 115.82C427.848 115.63 426.878 115.352 426.878 115.352C427.573 114.132 428.507 113.329 429.027 112.769C427.393 112.3 425.109 111.645 425.109 111.645L426.471 110.603C424.93 109.814 423.204 109.666 422.125 109.719C421.57 109.198 422.409 108.729 423.156 108.582C421.758 108.542 420.348 108.5 419.273 108.539C418.81 107.697 419.888 107.645 420.727 107.176C418.347 106.855 417.508 107.324 416.337 107.697C415.874 106.855 416.621 106.708 417.141 106.147C415.319 106.335 414.464 106.813 413.306 107.19C413.07 106.761 412.83 106.344 413.446 105.45C412.607 105.918 411.436 106.292 410.502 107.095C409.947 106.574 410.454 106.01 410.642 105.355C409.375 106.063 408.121 106.774 407.178 107.561C406.858 107.469 407.046 106.814 407.234 106.158C403.862 108.043 398.057 113.5 402.854 117.727C408.558 115.078 415.289 113.809 422.072 113.612C412.677 115.55 407.151 117.526 403.684 119.745C403.491 125.379 410.249 127.678 412.961 128.094C412.402 127.586 412.166 127.157 412.262 126.823C412.686 126.597 414.559 127.481 416.381 127.294ZM406.099 128.616C403.386 128.2 415.014 146.849 416.277 143.65C418.875 135.841 413.992 129.461 406.099 128.616ZM413.791 164.65C418.666 162.487 422.514 153.979 416.556 147.638C412.682 145.109 409.825 164.945 413.791 164.65ZM394.052 176.793C395.957 178.772 401.378 179.617 406.475 175.376C410.411 171.525 411.402 166.816 409.825 164.945C407.681 162.55 402.771 163.632 398.796 166.414C395.332 168.62 392.331 174.172 394.052 176.793ZM404.055 157.949C408.729 156.438 411.079 150.7 409.558 144.922C407.61 139.384 402.613 135.809 397.94 137.321C393.266 138.832 390.916 144.57 392.436 150.347C393.969 156.128 399.369 159.457 404.055 157.949ZM378.991 182.448C383.796 184.187 389.593 181.218 389.969 179.907C390.536 177.927 385.137 174.599 381.206 173.472C377.384 172.014 371.692 172.162 371.124 174.141C370.748 175.452 374.422 181.138 378.991 182.448ZM375.226 158.585C373.811 163.52 376.929 168.684 382.149 170.181C387.382 171.682 393.083 169.046 394.498 164.111C395.913 159.175 392.807 154.015 387.574 152.514C382.023 150.922 376.641 153.649 375.226 158.585ZM384.696 147.766C389.282 144.102 390.094 137.561 386.932 133.802C383.765 130.057 377.41 130.015 373.046 134.105C368.696 138.199 367.651 144.298 370.814 148.056C374.085 151.484 380.428 151.522 384.696 147.766ZM359.431 161.886C361.982 169.03 367.534 170.622 369.958 169.537C372.823 168.216 373.076 161.167 370.845 156.619C368.712 151.723 365.533 147.974 362.685 149.286C360.392 151.118 357.614 157.095 359.431 161.886ZM359.973 148.87C363.1 151.547 371.508 133.302 366.655 132.982C358.338 134.867 356.998 144.456 359.973 148.87Z" stroke="white" stroke-width="35" stroke-linecap="round" stroke-linejoin="round"/>
<path d="M495.206 240.17L488.119 251.692C487.408 252.787 486.671 253.402 485.712 253.453C485.233 253.478 484.648 253.316 484.052 252.963C478.599 249.788 466.228 243.034 461.178 240.223C460.583 239.869 459.968 239.132 459.922 238.27C459.897 237.79 460.064 237.301 460.513 236.701L467.16 227.796C462.417 230.833 458.132 233.461 456.265 234.52L455.705 234.838L457.427 251.186C457.487 252.336 456.77 253.335 455.62 253.396L436.502 255.455C435.447 255.51 434.448 254.793 434.292 253.648L426.161 175.535L426.151 175.343C426.1 174.384 426.918 173.476 427.872 173.33L446.995 171.366L447.187 171.356C448.241 171.301 449.054 172.124 449.205 173.173L453.449 213.807C457.219 210.533 473.065 197.398 477.283 197.177C478.05 197.136 478.933 197.475 479.766 198.681L488.401 211.206C488.815 211.761 489.036 212.326 489.067 212.902C489.117 213.86 488.587 214.753 487.467 215.389C485.13 216.665 479.821 219.923 474.235 223.388C481.056 225.146 495.591 234.67 495.777 238.217C495.807 238.792 495.645 239.378 495.206 240.17Z" fill="#DF5757"/>
<path d="M412.264 207.296L407.752 218.912C407.368 220.064 406.312 221.024 405.16 221.024C404.776 221.024 404.296 220.832 403.912 220.544C402.184 219.104 398.824 218.048 395.464 218.048C392.968 218.048 384.616 218.624 384.616 229.088C384.616 235.52 389.224 239.744 395.464 239.744C399.592 239.744 404.392 237.92 409 233.696C409.576 233.12 410.44 232.64 411.304 232.64C411.976 232.64 412.744 233.024 413.416 234.176C415.144 237.44 416.296 239.168 417.832 242.336C418.12 242.912 418.312 243.584 418.312 244.256C418.312 245.408 417.832 246.464 416.68 247.616C408.904 255.008 399.688 258.272 391.048 258.272C375.112 258.272 361 247.136 361 230.24C361 208.736 378.184 200 394.024 200C404.68 200 412.36 204.224 412.36 206.624C412.36 206.816 412.36 207.104 412.264 207.296Z" fill="#DF5757"/>
<path d="M367.489 257.522L368.142 270.557C368.21 272.403 367.811 273.631 366.73 274.255C365.898 274.735 359.311 276.765 352.898 275.257C349.871 279.998 345.957 283.588 341.717 286.036C327.833 294.052 309.717 290.322 301.989 276.937C296.229 266.96 294.992 248.497 311.453 238.993C315.61 236.593 320.212 235.156 324.27 234.697C324.433 233.827 325.037 233.146 326.035 232.57L326.451 232.33L341.554 225.273C343.811 224.191 345.017 224.936 345.593 225.933L345.833 226.349C349.037 234.587 352.049 242.492 355.217 247.979C358.097 252.967 361.076 256.014 364.552 255.892C365.624 255.827 366.826 255.798 367.306 256.629C367.402 256.796 367.463 257.093 367.489 257.522ZM339.625 265.517C338.128 263.499 336.618 261.267 335.13 258.69C333.882 256.528 332.669 254.235 331.395 251.645C329.437 250.559 326.521 250.691 324.11 252.083C318.872 255.107 318.89 261.858 321.338 266.098C324.026 270.754 329.572 272.873 334.976 269.753C336.556 268.841 338.193 267.452 339.625 265.517Z" fill="#DF5757"/>
<path d="M301.157 289.428L292.582 297.534C291.589 298.47 290.651 298.824 289.789 298.884C289.406 298.911 271.462 296.894 270.102 277.453C269.292 265.866 263.641 262.123 256.746 262.605L256.267 262.638L258.698 297.401C258.778 298.551 257.977 299.473 256.923 299.546L237.77 300.886C236.621 300.966 235.699 300.164 235.618 299.015L230.141 220.679C230.067 219.625 230.862 218.607 232.011 218.527L251.164 217.188C252.218 217.114 253.147 218.011 253.22 219.065L254.961 243.964C256.104 243.788 257.253 243.707 258.307 243.634C276.311 242.375 291.426 252.096 293.039 271.038C293.57 277.256 295.15 281.957 300.103 285.364C300.711 285.802 301.832 286.686 301.905 287.74C301.939 288.219 301.788 288.807 301.157 289.428Z" fill="#DF5757"/>
<path d="M230.395 202.231L229.423 201.818C227.479 200.993 226.745 200.265 226.853 198.537L227.316 186.636C227.34 186.334 227.364 186.031 227.439 185.854C228.002 184.529 229.844 185.102 230.904 185.552C236.156 187.677 239.68 186.253 240.581 184.132C241.068 182.983 240.52 181.082 239.958 178.966L238.697 175.302C236.684 169.233 236.707 164.758 238.132 161.4C242.371 151.415 259.025 152.227 270.602 157.141C274.048 158.603 274.782 159.332 274.725 161.185L274.35 173.124C274.377 173.552 274.265 173.818 274.152 174.083C273.739 175.055 272.617 174.996 271.468 174.508L271.115 174.358C265.813 172.107 263.03 173.012 262.28 174.779C261.642 176.282 262.255 178.523 264.038 183.66C266.227 189.804 266.307 194.531 264.881 197.889C260.455 208.316 242.236 207.257 230.395 202.231Z" fill="#DF5757"/>
<path d="M217.412 185.223L215.117 198.071C214.767 199.885 214.102 200.992 212.909 201.357C211.991 201.637 205.115 202.133 199.206 199.222C195.19 203.16 190.569 205.777 185.887 207.209C170.555 211.896 153.743 204.187 149.224 189.406C145.856 178.389 148.803 160.121 166.981 154.564C171.571 153.161 176.378 152.795 180.436 153.261C180.79 152.45 181.532 151.922 182.634 151.585L183.093 151.445L199.396 147.966C201.839 147.42 202.847 148.417 203.184 149.519L203.324 149.978C204.593 158.725 205.75 167.105 207.602 173.164C209.286 178.673 211.503 182.311 214.918 182.974C215.976 183.152 217.154 183.394 217.435 184.312C217.491 184.496 217.484 184.8 217.412 185.223ZM188.464 186.745C187.459 184.442 186.49 181.928 185.62 179.082C184.89 176.695 184.224 174.188 183.565 171.378C181.902 169.878 179.031 169.351 176.368 170.165C170.585 171.933 169.084 178.516 170.515 183.198C172.087 188.339 177.014 191.651 182.982 189.827C184.726 189.293 186.634 188.309 188.464 186.745Z" fill="#DF5757"/>
<path d="M229.058 126.34L209.906 123.988C208.858 123.859 208.105 122.896 208.234 121.848L217.792 44.001C217.933 42.8576 218.896 42.1053 219.944 42.234L239.096 44.5856C240.144 44.7143 240.896 45.6771 240.756 46.8205L231.198 124.668C231.069 125.716 230.106 126.468 229.058 126.34Z" fill="#DF5757"/>
<path d="M203.016 95.088C203.016 113.808 184.008 124.272 170.376 124.272C154.728 124.272 141 112.944 141 96.048C141 76.272 155.784 66 172.68 66C193.896 66 203.016 82.608 203.016 95.088ZM172.68 105.936C179.496 105.936 182.568 100.368 182.568 94.896C182.568 93.072 182.184 83.76 172.392 83.76C164.328 83.76 162.024 90.576 162.024 94.896C162.024 101.52 167.208 105.936 172.68 105.936Z" fill="#DF5757"/>
<path d="M136.016 88.088C136.016 106.808 117.008 117.272 103.376 117.272C87.728 117.272 74 105.944 74 89.048C74 69.272 88.784 59 105.68 59C126.896 59 136.016 75.608 136.016 88.088ZM105.68 98.936C112.496 98.936 115.568 93.368 115.568 87.896C115.568 86.072 115.184 76.76 105.392 76.76C97.328 76.76 95.024 83.576 95.024 87.896C95.024 94.52 100.208 98.936 105.68 98.936Z" fill="#DF5757"/>
<path d="M60.6678 80.9245L60.4008 93.3831C60.434 94.597 59.77 95.8603 58.6875 96.2543C58.3266 96.3856 57.8099 96.3694 57.3506 96.2301C55.2343 95.4679 51.7157 95.6248 48.5584 96.774C46.2129 97.6277 38.5616 101.025 42.1405 110.858C44.3403 116.903 50.1151 119.296 55.9788 117.162C59.8579 115.75 63.7446 112.394 66.63 106.849C66.9742 106.11 67.622 105.364 68.4338 105.068C69.0653 104.839 69.9183 104.937 70.9438 105.789C73.684 108.266 75.3575 109.495 77.8844 111.947C78.352 112.39 78.7623 112.956 78.9921 113.587C79.3861 114.67 79.2962 115.826 78.6077 117.303C73.8289 126.908 66.285 133.128 58.1661 136.083C43.1911 141.533 26.1215 135.895 20.3427 120.018C12.9879 99.811 26.1477 85.7245 41.0324 80.3069C51.0458 76.6624 59.7073 78.0049 60.5282 80.2602C60.5938 80.4406 60.6923 80.7112 60.6678 80.9245Z" fill="#DF5757"/>
<mask id="mask0_13_57" style="mask-type:alpha" maskUnits="userSpaceOnUse" x="18" y="42" width="478" height="259">
<path d="M495.206 240.17L488.119 251.692C487.408 252.787 486.671 253.402 485.712 253.453C485.233 253.478 484.648 253.316 484.052 252.963C478.599 249.788 466.228 243.034 461.178 240.223C460.583 239.869 459.968 239.132 459.922 238.27C459.897 237.79 460.064 237.301 460.513 236.701L467.16 227.796C462.417 230.833 458.132 233.461 456.265 234.52L455.705 234.838L457.427 251.186C457.487 252.336 456.77 253.335 455.62 253.396L436.502 255.455C435.447 255.51 434.448 254.793 434.292 253.648L426.161 175.535L426.151 175.343C426.1 174.384 426.918 173.476 427.872 173.33L446.995 171.366L447.187 171.356C448.241 171.301 449.054 172.124 449.205 173.173L453.449 213.807C457.219 210.533 473.065 197.398 477.283 197.177C478.05 197.136 478.933 197.475 479.766 198.681L488.401 211.206C488.815 211.761 489.036 212.326 489.067 212.902C489.117 213.86 488.587 214.753 487.467 215.389C485.13 216.665 479.821 219.923 474.235 223.388C481.056 225.146 495.591 234.67 495.777 238.217C495.807 238.792 495.645 239.378 495.206 240.17Z" fill="black"/>
<path d="M412.264 207.296L407.752 218.912C407.368 220.064 406.312 221.024 405.16 221.024C404.776 221.024 404.296 220.832 403.912 220.544C402.184 219.104 398.824 218.048 395.464 218.048C392.968 218.048 384.616 218.624 384.616 229.088C384.616 235.52 389.224 239.744 395.464 239.744C399.592 239.744 404.392 237.92 409 233.696C409.576 233.12 410.44 232.64 411.304 232.64C411.976 232.64 412.744 233.024 413.416 234.176C415.144 237.44 416.296 239.168 417.832 242.336C418.12 242.912 418.312 243.584 418.312 244.256C418.312 245.408 417.832 246.464 416.68 247.616C408.904 255.008 399.688 258.272 391.048 258.272C375.112 258.272 361 247.136 361 230.24C361 208.736 378.184 200 394.024 200C404.68 200 412.36 204.224 412.36 206.624C412.36 206.816 412.36 207.104 412.264 207.296Z" fill="black"/>
<path d="M367.489 257.522L368.142 270.557C368.21 272.403 367.811 273.631 366.73 274.255C365.898 274.735 359.311 276.765 352.898 275.257C349.871 279.998 345.957 283.588 341.717 286.036C327.833 294.052 309.717 290.322 301.989 276.937C296.229 266.96 294.992 248.497 311.453 238.993C315.61 236.593 320.212 235.156 324.27 234.697C324.433 233.827 325.037 233.146 326.035 232.57L326.451 232.33L341.554 225.273C343.811 224.191 345.017 224.936 345.593 225.933L345.833 226.349C349.037 234.587 352.049 242.492 355.217 247.979C358.097 252.967 361.076 256.014 364.552 255.892C365.624 255.827 366.826 255.798 367.306 256.629C367.402 256.796 367.463 257.093 367.489 257.522ZM339.625 265.517C338.128 263.499 336.618 261.267 335.13 258.69C333.882 256.528 332.669 254.235 331.395 251.645C329.437 250.559 326.521 250.691 324.11 252.083C318.872 255.107 318.89 261.858 321.338 266.098C324.026 270.754 329.572 272.873 334.976 269.753C336.556 268.841 338.193 267.452 339.625 265.517Z" fill="black"/>
<path d="M301.157 289.428L292.582 297.534C291.589 298.47 290.651 298.824 289.789 298.884C289.406 298.911 271.462 296.894 270.102 277.453C269.292 265.866 263.641 262.123 256.746 262.605L256.267 262.638L258.698 297.401C258.778 298.551 257.977 299.473 256.923 299.546L237.77 300.886C236.621 300.966 235.699 300.164 235.618 299.015L230.141 220.679C230.067 219.625 230.862 218.607 232.011 218.527L251.164 217.188C252.218 217.114 253.147 218.011 253.22 219.065L254.961 243.964C256.104 243.788 257.253 243.707 258.307 243.634C276.311 242.375 291.426 252.096 293.039 271.038C293.57 277.256 295.15 281.957 300.103 285.364C300.711 285.802 301.832 286.686 301.905 287.74C301.939 288.219 301.788 288.807 301.157 289.428Z" fill="black"/>
<path d="M230.395 202.231L229.423 201.818C227.479 200.993 226.745 200.265 226.853 198.537L227.316 186.636C227.34 186.334 227.364 186.031 227.439 185.854C228.002 184.529 229.844 185.102 230.904 185.552C236.156 187.677 239.68 186.253 240.581 184.132C241.068 182.983 240.52 181.082 239.958 178.966L238.697 175.302C236.684 169.233 236.707 164.758 238.132 161.4C242.371 151.415 259.025 152.227 270.602 157.141C274.048 158.603 274.782 159.332 274.725 161.185L274.35 173.124C274.377 173.552 274.265 173.818 274.152 174.083C273.739 175.055 272.617 174.996 271.468 174.508L271.115 174.358C265.813 172.107 263.03 173.012 262.28 174.779C261.642 176.282 262.255 178.523 264.038 183.66C266.227 189.804 266.307 194.531 264.881 197.889C260.455 208.316 242.236 207.257 230.395 202.231Z" fill="black"/>
<path d="M217.412 185.223L215.117 198.071C214.767 199.885 214.102 200.992 212.909 201.357C211.991 201.637 205.115 202.133 199.206 199.222C195.19 203.16 190.569 205.777 185.887 207.209C170.555 211.896 153.743 204.187 149.224 189.406C145.856 178.389 148.803 160.121 166.981 154.564C171.571 153.161 176.378 152.795 180.436 153.261C180.79 152.45 181.532 151.922 182.634 151.585L183.093 151.445L199.396 147.966C201.839 147.42 202.847 148.417 203.184 149.519L203.324 149.978C204.593 158.725 205.75 167.105 207.602 173.164C209.286 178.673 211.503 182.311 214.918 182.974C215.976 183.152 217.154 183.394 217.435 184.312C217.491 184.496 217.484 184.8 217.412 185.223ZM188.464 186.745C187.459 184.442 186.49 181.928 185.62 179.082C184.89 176.695 184.224 174.188 183.565 171.378C181.902 169.878 179.031 169.351 176.368 170.165C170.585 171.933 169.084 178.516 170.515 183.198C172.087 188.339 177.014 191.651 182.982 189.827C184.726 189.293 186.634 188.309 188.464 186.745Z" fill="black"/>
<path d="M229.058 126.34L209.906 123.988C208.858 123.859 208.105 122.896 208.234 121.848L217.792 44.001C217.933 42.8576 218.896 42.1053 219.944 42.234L239.096 44.5856C240.144 44.7143 240.896 45.6771 240.756 46.8205L231.198 124.668C231.069 125.716 230.106 126.468 229.058 126.34Z" fill="black"/>
<path d="M203.016 95.088C203.016 113.808 184.008 124.272 170.376 124.272C154.728 124.272 141 112.944 141 96.048C141 76.272 155.784 66 172.68 66C193.896 66 203.016 82.608 203.016 95.088ZM172.68 105.936C179.496 105.936 182.568 100.368 182.568 94.896C182.568 93.072 182.184 83.76 172.392 83.76C164.328 83.76 162.024 90.576 162.024 94.896C162.024 101.52 167.208 105.936 172.68 105.936Z" fill="black"/>
<path d="M136.016 88.088C136.016 106.808 117.008 117.272 103.376 117.272C87.728 117.272 74 105.944 74 89.048C74 69.272 88.784 59 105.68 59C126.896 59 136.016 75.608 136.016 88.088ZM105.68 98.936C112.496 98.936 115.568 93.368 115.568 87.896C115.568 86.072 115.184 76.76 105.392 76.76C97.328 76.76 95.024 83.576 95.024 87.896C95.024 94.52 100.208 98.936 105.68 98.936Z" fill="black"/>
<path d="M60.6678 80.9245L60.4008 93.3831C60.434 94.597 59.77 95.8603 58.6875 96.2543C58.3266 96.3856 57.8099 96.3694 57.3506 96.2301C55.2343 95.4679 51.7157 95.6248 48.5584 96.774C46.2129 97.6277 38.5616 101.025 42.1405 110.858C44.3403 116.903 50.1151 119.296 55.9788 117.162C59.8579 115.75 63.7446 112.394 66.63 106.849C66.9742 106.11 67.622 105.364 68.4338 105.068C69.0653 104.839 69.9183 104.937 70.9438 105.789C73.684 108.266 75.3575 109.495 77.8844 111.947C78.352 112.39 78.7623 112.956 78.9921 113.587C79.3861 114.67 79.2962 115.826 78.6077 117.303C73.8289 126.908 66.285 133.128 58.1661 136.083C43.1911 141.533 26.1215 135.895 20.3427 120.018C12.9879 99.811 26.1477 85.7245 41.0324 80.3069C51.0458 76.6624 59.7073 78.0049 60.5282 80.2602C60.5938 80.4406 60.6923 80.7112 60.6678 80.9245Z" fill="black"/>
</mask>
<g mask="url(#mask0_13_57)">
<path d="M495.206 240.17L488.119 251.692C487.408 252.787 486.671 253.402 485.712 253.453C485.233 253.478 484.648 253.316 484.052 252.963C478.599 249.788 466.228 243.034 461.178 240.223C460.583 239.869 459.968 239.132 459.922 238.27C459.897 237.79 460.064 237.301 460.513 236.701L467.16 227.796C462.417 230.833 458.132 233.461 456.265 234.52L455.705 234.838L457.427 251.186C457.487 252.336 456.77 253.335 455.62 253.396L436.502 255.455C435.447 255.51 434.448 254.793 434.292 253.648L426.161 175.535L426.151 175.343C426.1 174.384 426.918 173.476 427.872 173.33L446.995 171.366L447.187 171.356C448.241 171.301 449.054 172.124 449.205 173.173L453.449 213.807C457.219 210.533 473.065 197.398 477.283 197.177C478.05 197.136 478.933 197.475 479.766 198.681L488.401 211.206C488.815 211.761 489.036 212.326 489.067 212.902C489.117 213.86 488.587 214.753 487.467 215.389C485.13 216.665 479.821 219.923 474.235 223.388C481.056 225.146 495.591 234.67 495.777 238.217C495.807 238.792 495.645 239.378 495.206 240.17Z" fill="white" fill-opacity="0.05"/>
<path d="M412.264 207.296L407.752 218.912C407.368 220.064 406.312 221.024 405.16 221.024C404.776 221.024 404.296 220.832 403.912 220.544C402.184 219.104 398.824 218.048 395.464 218.048C392.968 218.048 384.616 218.624 384.616 229.088C384.616 235.52 389.224 239.744 395.464 239.744C399.592 239.744 404.392 237.92 409 233.696C409.576 233.12 410.44 232.64 411.304 232.64C411.976 232.64 412.744 233.024 413.416 234.176C415.144 237.44 416.296 239.168 417.832 242.336C418.12 242.912 418.312 243.584 418.312 244.256C418.312 245.408 417.832 246.464 416.68 247.616C408.904 255.008 399.688 258.272 391.048 258.272C375.112 258.272 361 247.136 361 230.24C361 208.736 378.184 200 394.024 200C404.68 200 412.36 204.224 412.36 206.624C412.36 206.816 412.36 207.104 412.264 207.296Z" fill="white" fill-opacity="0.05"/>
<path d="M367.489 257.522L368.142 270.557C368.21 272.403 367.811 273.631 366.73 274.255C365.898 274.735 359.311 276.765 352.898 275.257C349.871 279.998 345.957 283.588 341.717 286.036C327.833 294.052 309.717 290.322 301.989 276.937C296.229 266.96 294.992 248.497 311.453 238.993C315.61 236.593 320.212 235.156 324.27 234.697C324.433 233.827 325.037 233.146 326.035 232.57L326.451 232.33L341.554 225.273C343.811 224.191 345.017 224.936 345.593 225.933L345.833 226.349C349.037 234.587 352.049 242.492 355.217 247.979C358.097 252.967 361.076 256.014 364.552 255.892C365.624 255.827 366.826 255.798 367.306 256.629C367.402 256.796 367.463 257.093 367.489 257.522ZM339.625 265.517C338.128 263.499 336.618 261.267 335.13 258.69C333.882 256.528 332.669 254.235 331.395 251.645C329.437 250.559 326.521 250.691 324.11 252.083C318.872 255.107 318.89 261.858 321.338 266.098C324.026 270.754 329.572 272.873 334.976 269.753C336.556 268.841 338.193 267.452 339.625 265.517Z" fill="white" fill-opacity="0.05"/>
<path d="M301.157 289.428L292.582 297.534C291.589 298.47 290.651 298.824 289.789 298.884C289.406 298.911 271.462 296.894 270.102 277.453C269.292 265.866 263.641 262.123 256.746 262.605L256.267 262.638L258.698 297.401C258.778 298.551 257.977 299.473 256.923 299.546L237.77 300.886C236.621 300.966 235.699 300.164 235.618 299.015L230.141 220.679C230.067 219.625 230.862 218.607 232.011 218.527L251.164 217.188C252.218 217.114 253.147 218.011 253.22 219.065L254.961 243.964C256.104 243.788 257.253 243.707 258.307 243.634C276.311 242.375 291.426 252.096 293.039 271.038C293.57 277.256 295.15 281.957 300.103 285.364C300.711 285.802 301.832 286.686 301.905 287.74C301.939 288.219 301.788 288.807 301.157 289.428Z" fill="white" fill-opacity="0.05"/>
<path d="M230.395 202.231L229.423 201.818C227.479 200.993 226.745 200.265 226.853 198.537L227.316 186.636C227.34 186.334 227.364 186.031 227.439 185.854C228.002 184.529 229.844 185.102 230.904 185.552C236.156 187.677 239.68 186.253 240.581 184.132C241.068 182.983 240.52 181.082 239.958 178.966L238.697 175.302C236.684 169.233 236.707 164.758 238.132 161.4C242.371 151.415 259.025 152.227 270.602 157.141C274.048 158.603 274.782 159.332 274.725 161.185L274.35 173.124C274.377 173.552 274.265 173.818 274.152 174.083C273.739 175.055 272.617 174.996 271.468 174.508L271.115 174.358C265.813 172.107 263.03 173.012 262.28 174.779C261.642 176.282 262.255 178.523 264.038 183.66C266.227 189.804 266.307 194.531 264.881 197.889C260.455 208.316 242.236 207.257 230.395 202.231Z" fill="white" fill-opacity="0.05"/>
<path d="M217.412 185.223L215.117 198.071C214.767 199.885 214.102 200.992 212.909 201.357C211.991 201.637 205.115 202.133 199.206 199.222C195.19 203.16 190.569 205.777 185.887 207.209C170.555 211.896 153.743 204.187 149.224 189.406C145.856 178.389 148.803 160.121 166.981 154.564C171.571 153.161 176.378 152.795 180.436 153.261C180.79 152.45 181.532 151.922 182.634 151.585L183.093 151.445L199.396 147.966C201.839 147.42 202.847 148.417 203.184 149.519L203.324 149.978C204.593 158.725 205.75 167.105 207.602 173.164C209.286 178.673 211.503 182.311 214.918 182.974C215.976 183.152 217.154 183.394 217.435 184.312C217.491 184.496 217.484 184.8 217.412 185.223ZM188.464 186.745C187.459 184.442 186.49 181.928 185.62 179.082C184.89 176.695 184.224 174.188 183.565 171.378C181.902 169.878 179.031 169.351 176.368 170.165C170.585 171.933 169.084 178.516 170.515 183.198C172.087 188.339 177.014 191.651 182.982 189.827C184.726 189.293 186.634 188.309 188.464 186.745Z" fill="white" fill-opacity="0.05"/>
<path d="M229.058 126.34L209.906 123.988C208.858 123.859 208.105 122.896 208.234 121.848L217.792 44.001C217.933 42.8576 218.896 42.1053 219.944 42.234L239.096 44.5856C240.144 44.7143 240.896 45.6771 240.756 46.8205L231.198 124.668C231.069 125.716 230.106 126.468 229.058 126.34Z" fill="white" fill-opacity="0.05"/>
<path d="M203.016 95.088C203.016 113.808 184.008 124.272 170.376 124.272C154.728 124.272 141 112.944 141 96.048C141 76.272 155.784 66 172.68 66C193.896 66 203.016 82.608 203.016 95.088ZM172.68 105.936C179.496 105.936 182.568 100.368 182.568 94.896C182.568 93.072 182.184 83.76 172.392 83.76C164.328 83.76 162.024 90.576 162.024 94.896C162.024 101.52 167.208 105.936 172.68 105.936Z" fill="white" fill-opacity="0.05"/>
<path d="M136.016 88.088C136.016 106.808 117.008 117.272 103.376 117.272C87.728 117.272 74 105.944 74 89.048C74 69.272 88.784 59 105.68 59C126.896 59 136.016 75.608 136.016 88.088ZM105.68 98.936C112.496 98.936 115.568 93.368 115.568 87.896C115.568 86.072 115.184 76.76 105.392 76.76C97.328 76.76 95.024 83.576 95.024 87.896C95.024 94.52 100.208 98.936 105.68 98.936Z" fill="white" fill-opacity="0.05"/>
<path d="M60.6678 80.9245L60.4008 93.3831C60.434 94.597 59.77 95.8603 58.6875 96.2543C58.3266 96.3856 57.8099 96.3694 57.3506 96.2301C55.2343 95.4679 51.7157 95.6248 48.5584 96.774C46.2129 97.6277 38.5616 101.025 42.1405 110.858C44.3403 116.903 50.1151 119.296 55.9788 117.162C59.8579 115.75 63.7446 112.394 66.63 106.849C66.9742 106.11 67.622 105.364 68.4338 105.068C69.0653 104.839 69.9183 104.937 70.9438 105.789C73.684 108.266 75.3575 109.495 77.8844 111.947C78.352 112.39 78.7623 112.956 78.9921 113.587C79.3861 114.67 79.2962 115.826 78.6077 117.303C73.8289 126.908 66.285 133.128 58.1661 136.083C43.1911 141.533 26.1215 135.895 20.3427 120.018C12.9879 99.811 26.1477 85.7245 41.0324 80.3069C51.0458 76.6624 59.7073 78.0049 60.5282 80.2602C60.5938 80.4406 60.6923 80.7112 60.6678 80.9245Z" fill="white" fill-opacity="0.05"/>
<path d="M133.458 103.863L63.9075 124.728C15.8861 139.134 -17 183.334 -17 233.47C-17 296.171 33.8292 347 96.5301 347H502.42C540.296 347 571 316.296 571 278.42V265.976C571 243.383 556.317 223.412 534.753 216.673C527.026 214.258 518.839 213.693 510.854 215.024L493.863 217.856C479.402 220.266 465.484 225.223 452.756 232.497L437 241.5L416.45 252.232C400.237 260.698 382.872 266.744 364.907 270.175L359.117 271.281C351.39 272.757 343.54 273.5 335.673 273.5H325.079C297.873 273.5 265.758 266.267 254.5 241.5C252.941 238.07 245.202 219.424 239.103 204.659C236.036 197.236 233.656 189.549 231.98 181.694L229.59 170.503C226.577 156.385 220.13 143.228 210.821 132.195L204.838 125.104C191.941 109.819 172.961 101 152.962 101C146.356 101 139.786 101.964 133.458 103.863Z" fill="#7694C7" fill-opacity="0.25"/>
<path d="M150.458 79.8625L80.9075 100.728C32.8861 115.134 0 159.334 0 209.47C0 272.171 50.8292 323 113.53 323H519.42C557.296 323 588 292.296 588 254.42V241.976C588 219.383 573.317 199.412 551.753 192.673C544.026 190.258 535.839 189.693 527.854 191.024L510.863 193.856C496.402 196.266 482.484 201.223 469.756 208.497L454 217.5L426.759 231.726C414.983 237.875 402.37 242.266 389.321 244.759L376.117 247.281C368.39 248.757 360.54 249.5 352.673 249.5H342.079C314.873 249.5 282.758 242.267 271.5 217.5C269.941 214.07 262.202 195.424 256.103 180.659C253.036 173.236 250.656 165.549 248.98 157.694L246.59 146.503C243.577 132.385 237.13 119.228 227.821 108.195L221.838 101.104C208.941 85.8195 189.961 77 169.962 77C163.356 77 156.786 77.9643 150.458 79.8625Z" fill="#47B1F9" fill-opacity="0.25"/>
<path d="M154.352 62.1062L89.2534 83.0648C38.4455 99.4224 4 146.699 4 200.075C4 267.965 59.0354 323 126.925 323H517.724C558.746 323 592 289.746 592 248.724V238.917C592 212.855 575.349 189.708 550.64 181.422C546.228 179.942 541.66 178.975 537.027 178.54L532.422 178.108C507.685 175.785 482.954 182.695 463 197.5L448.57 205.929C424.694 219.877 398.64 229.704 371.5 235L356.728 235.855C327.831 237.526 286.789 236.433 275.5 209.781C273.939 206.096 266.796 186.8 260.962 171.278C258.012 163.43 255.617 155.383 253.86 147.185L250.433 131.194C247.516 117.586 241.528 104.825 232.927 93.8843L224.885 83.6562C212.646 68.0887 193.939 59 174.136 59C167.42 59 160.745 60.048 154.352 62.1062Z" fill="#47B1F9" fill-opacity="0.25"/>
</g>
<g clip-path="url(#clip0_13_57)">
<path d="M283.913 18.3994L325.445 44.9306L322.064 69.9739L301.066 80.2155L279.249 67.4619L283.913 18.3994ZM283.913 18.3994L299.451 50.258M296.866 82.2638L326.263 67.9256L332.408 80.5246L303.011 94.8627L296.866 82.2638ZM308.595 58.3476C307.407 61.7983 303.647 63.6324 300.196 62.4442C296.745 61.2561 294.911 57.4956 296.099 54.0449C297.287 50.5943 301.048 48.7602 304.499 49.9483C307.949 51.1365 309.783 54.897 308.595 58.3476Z" stroke="#E16060" stroke-width="6" stroke-linecap="round" stroke-linejoin="round"/>
</g>
<path d="M56.2453 165.98L42.5201 184.871L61.4111 198.596M94.0272 193.43L107.752 174.539L88.8613 160.814M78.7701 149.874L71.5024 209.536" stroke="#8F8AB1" stroke-width="8" stroke-linecap="round" stroke-linejoin="round"/>
<mask id="path-37-outside-1_13_57" maskUnits="userSpaceOnUse" x="343.763" y="88.7632" width="93.3326" height="107.045" fill="black">
<rect fill="white" x="343.763" y="88.7632" width="93.3326" height="107.045"/>
<path d="M364.192 130.495L365.126 129.692C367.389 121.8 371.827 119.86 376.418 118.686C375.199 117.975 373.989 117.281 374.129 115.54C372.033 114.23 371.985 113.145 371.949 112.064C371.394 111.543 370.041 110.098 370.608 108.118C369.813 107.181 369.446 106.005 370.141 104.785C369.538 103.18 369.503 102.099 370.102 101.213C369.272 99.195 370.207 98.3919 370.822 97.4974C370.407 95.2363 371.954 93.5517 374.478 94.6233C375.92 93.2563 378.44 94.3407 378.772 94.4358C379.279 93.8718 380.039 93.728 381.576 94.5306C383.494 94.0094 384.796 94.3827 385.909 95.4115C387.919 94.5689 388.618 95.8404 389.509 96.4435C391.662 96.3516 391.697 97.4328 392.588 98.0359C394.646 98.2782 395.013 99.4545 395.715 100.713L396.685 100.991C399.162 103.482 399.661 107.909 399.84 109.741C401.058 107.948 403.412 104.7 407.151 103.992L408.121 104.27C409.384 103.575 410.319 102.772 412.192 103.657C413.267 103.618 413.87 102.72 415.647 103.939C416.39 103.804 417.137 103.656 418.12 103.938C418.452 104.033 418.675 104.459 419.246 104.971C420.736 104.688 422.038 105.062 422.737 106.333C424.466 106.467 424.929 107.31 425.165 107.739C425.497 107.834 428.197 108.247 428.708 110.173C431.748 110.698 432.154 112.942 430.617 114.643C430.984 115.82 431.115 116.567 429.246 118.173C429.709 119.015 429.014 120.234 427.415 120.847C427.371 122.253 426.756 123.147 425.17 123.764C425.017 125.5 422.781 125.93 422.261 126.491C421.658 127.389 421.042 128.283 418.57 128.284C417.766 129.834 416.372 129.782 414.962 129.739C418.552 133.258 420.876 137.485 418.706 145.055L419.073 146.232C422.807 150.502 424.415 160.936 415.709 166.632C414.718 168.838 413.595 170.296 412.377 172.089C409.227 179.364 401.972 181.206 400.242 181.072C397.394 182.383 394.306 183.278 390.34 183.574C386.129 185.927 382.154 186.206 378.568 185.178C374.968 184.146 371.745 181.803 369.421 177.575C366.214 175.223 364.07 172.828 362.349 170.206C360.811 169.404 355.635 163.997 356.832 156.162C356.736 153.992 356.557 152.16 356.565 149.673C351.551 140.042 358.443 132.046 364.192 130.495ZM368.809 130.386C368.197 133.772 387.937 124.131 385.416 123.047C378.275 119.58 370.848 122.069 368.809 130.386ZM395.467 102.784C395.279 103.439 394.864 103.682 394.772 104.003C394.069 102.745 393.702 101.568 393.003 100.297C392.815 100.952 393.039 101.378 392.2 101.847C391.833 100.671 391.37 99.8285 390.243 98.7961C390.623 99.976 389.867 100.107 389.452 100.35C388.657 99.4124 388.198 98.5575 386.752 97.4335C386.883 98.1805 387.451 98.705 386.6 99.1702C385.818 98.2365 385.25 97.7121 383.153 96.4015C383.297 97.1521 384.184 97.7681 383.664 98.3284C382.774 97.7253 381.568 97.0179 380.349 96.3067C380.821 97.1654 381.38 97.6733 380.633 97.8209C379.414 97.1097 378.3 96.081 376.479 96.268L377.178 97.5394C377.178 97.5394 374.88 96.8807 373.247 96.4123C373.626 97.5922 374.089 98.4343 374.033 99.8368C374.033 99.8368 373.063 99.5587 372.399 99.3684C372.495 101.538 373.701 102.245 373.845 102.996C373.421 103.222 372.77 103.036 371.879 102.432C372.154 103.93 372.949 104.867 373.648 106.139C373.221 106.378 372.901 106.286 372.015 105.67C372.714 106.942 373.496 107.875 374.195 109.147C373.78 109.39 373.116 109.199 372.465 109.013C373.168 110.271 374.61 111.408 375.724 112.437C375.217 113.001 374.661 112.48 374.33 112.385C375.121 113.335 376.566 114.459 377.776 115.153C377.361 115.396 376.934 115.635 376.283 115.448C377.636 116.894 380.109 116.893 380.572 117.735C380.476 118.07 379.729 118.217 379.305 118.443C381.922 119.194 388.788 121.162 391.597 116.279C389.832 112.56 386.207 107.959 379.265 101.337C384.805 105.429 389.937 109.738 393.384 115.011C399.359 113.873 397.66 106.264 395.467 102.784ZM395.878 123.557C391.96 122.434 386.211 123.984 385.36 126.953C384.608 129.575 387.627 132.583 392.859 134.083C398.092 135.584 402.434 133.977 403.094 131.677C403.754 129.376 400.447 124.867 395.878 123.557ZM416.381 127.294C415.718 127.104 415.491 126.691 415.255 126.262C417.076 126.075 418.806 126.209 420.072 125.501C419.421 125.315 419.089 125.219 418.531 124.711C420.02 124.429 421.527 124.138 423.109 123.534C422.458 123.348 421.807 123.161 421.571 122.732C422.741 122.358 424.008 121.65 425.179 121.277C424.196 120.995 423.864 120.9 423.545 120.808C424.895 119.762 426.065 119.389 427.092 118.264C426.349 118.399 425.698 118.212 425.139 117.705C425.646 117.141 427.376 117.275 428.511 115.82C427.848 115.63 426.878 115.352 426.878 115.352C427.573 114.132 428.507 113.329 429.027 112.769C427.393 112.3 425.109 111.645 425.109 111.645L426.471 110.603C424.93 109.813 423.204 109.666 422.125 109.719C421.57 109.198 422.409 108.729 423.156 108.581C421.758 108.542 420.348 108.5 419.273 108.539C418.81 107.697 419.889 107.645 420.727 107.176C418.347 106.855 417.508 107.324 416.337 107.697C415.874 106.855 416.621 106.708 417.141 106.147C415.319 106.334 414.464 106.812 413.306 107.19C413.07 106.76 412.83 106.344 413.446 105.449C412.607 105.918 411.436 106.292 410.502 107.095C409.947 106.574 410.454 106.01 410.642 105.355C409.375 106.063 408.121 106.774 407.178 107.561C406.859 107.469 407.046 106.814 407.234 106.158C403.863 108.043 398.057 113.5 402.854 117.726C408.558 115.078 415.289 113.809 422.073 113.612C412.677 115.55 407.152 117.526 403.684 119.745C403.491 125.379 410.249 127.678 412.961 128.094C412.402 127.586 412.166 127.157 412.262 126.823C412.686 126.596 414.56 127.481 416.381 127.294ZM406.099 128.616C403.386 128.2 415.015 146.848 416.277 143.65C418.875 135.84 413.992 129.461 406.099 128.616ZM413.791 164.649C418.666 162.486 422.514 153.979 416.556 147.638C412.682 145.109 409.825 164.945 413.791 164.649ZM394.052 176.793C395.957 178.772 401.378 179.617 406.475 175.376C410.411 171.525 411.402 166.816 409.825 164.945C407.681 162.55 402.771 163.631 398.796 166.414C395.332 168.62 392.331 174.172 394.052 176.793ZM404.055 157.949C408.729 156.438 411.079 150.699 409.558 144.922C407.611 139.384 402.613 135.809 397.94 137.32C393.266 138.832 390.916 144.57 392.436 150.347C393.969 156.128 399.369 159.457 404.055 157.949ZM378.991 182.448C383.796 184.187 389.593 181.217 389.969 179.907C390.536 177.927 385.137 174.599 381.206 173.471C377.384 172.014 371.692 172.162 371.124 174.141C370.748 175.452 374.422 181.138 378.991 182.448ZM375.226 158.584C373.811 163.52 376.929 168.684 382.149 170.181C387.382 171.682 393.083 169.046 394.498 164.111C395.913 159.175 392.807 154.014 387.575 152.514C382.023 150.922 376.641 153.649 375.226 158.584ZM384.696 147.766C389.282 144.102 390.094 137.561 386.932 133.802C383.765 130.057 377.41 130.015 373.046 134.105C368.696 138.199 367.651 144.297 370.814 148.056C374.085 151.484 380.428 151.522 384.696 147.766ZM359.431 161.886C361.982 169.03 367.534 170.622 369.958 169.537C372.823 168.216 373.077 161.167 370.845 156.619C368.713 151.723 365.533 147.974 362.685 149.286C360.392 151.118 357.614 157.095 359.431 161.886ZM359.973 148.869C363.1 151.547 371.508 133.302 366.656 132.982C358.339 134.867 356.998 144.456 359.973 148.869Z"/>
</mask>
<path d="M364.192 130.495L365.126 129.692C367.389 121.8 371.827 119.86 376.418 118.686C375.199 117.975 373.989 117.281 374.129 115.54C372.033 114.23 371.985 113.145 371.949 112.064C371.394 111.543 370.041 110.098 370.608 108.118C369.813 107.181 369.446 106.005 370.141 104.785C369.538 103.18 369.503 102.099 370.102 101.213C369.272 99.195 370.207 98.3919 370.822 97.4974C370.407 95.2363 371.954 93.5517 374.478 94.6233C375.92 93.2563 378.44 94.3407 378.772 94.4358C379.279 93.8718 380.039 93.728 381.576 94.5306C383.494 94.0094 384.796 94.3827 385.909 95.4115C387.919 94.5689 388.618 95.8404 389.509 96.4435C391.662 96.3516 391.697 97.4328 392.588 98.0359C394.646 98.2782 395.013 99.4545 395.715 100.713L396.685 100.991C399.162 103.482 399.661 107.909 399.84 109.741C401.058 107.948 403.412 104.7 407.151 103.992L408.121 104.27C409.384 103.575 410.319 102.772 412.192 103.657C413.267 103.618 413.87 102.72 415.647 103.939C416.39 103.804 417.137 103.656 418.12 103.938C418.452 104.033 418.675 104.459 419.246 104.971C420.736 104.688 422.038 105.062 422.737 106.333C424.466 106.467 424.929 107.31 425.165 107.739C425.497 107.834 428.197 108.247 428.708 110.173C431.748 110.698 432.154 112.942 430.617 114.643C430.984 115.82 431.115 116.567 429.246 118.173C429.709 119.015 429.014 120.234 427.415 120.847C427.371 122.253 426.756 123.147 425.17 123.764C425.017 125.5 422.781 125.93 422.261 126.491C421.658 127.389 421.042 128.283 418.57 128.284C417.766 129.834 416.372 129.782 414.962 129.739C418.552 133.258 420.876 137.485 418.706 145.055L419.073 146.232C422.807 150.502 424.415 160.936 415.709 166.632C414.718 168.838 413.595 170.296 412.377 172.089C409.227 179.364 401.972 181.206 400.242 181.072C397.394 182.383 394.306 183.278 390.34 183.574C386.129 185.927 382.154 186.206 378.568 185.178C374.968 184.146 371.745 181.803 369.421 177.575C366.214 175.223 364.07 172.828 362.349 170.206C360.811 169.404 355.635 163.997 356.832 156.162C356.736 153.992 356.557 152.16 356.565 149.673C351.551 140.042 358.443 132.046 364.192 130.495ZM368.809 130.386C368.197 133.772 387.937 124.131 385.416 123.047C378.275 119.58 370.848 122.069 368.809 130.386ZM395.467 102.784C395.279 103.439 394.864 103.682 394.772 104.003C394.069 102.745 393.702 101.568 393.003 100.297C392.815 100.952 393.039 101.378 392.2 101.847C391.833 100.671 391.37 99.8285 390.243 98.7961C390.623 99.976 389.867 100.107 389.452 100.35C388.657 99.4124 388.198 98.5575 386.752 97.4335C386.883 98.1805 387.451 98.705 386.6 99.1702C385.818 98.2365 385.25 97.7121 383.153 96.4015C383.297 97.1521 384.184 97.7681 383.664 98.3284C382.774 97.7253 381.568 97.0179 380.349 96.3067C380.821 97.1654 381.38 97.6733 380.633 97.8209C379.414 97.1097 378.3 96.081 376.479 96.268L377.178 97.5394C377.178 97.5394 374.88 96.8807 373.247 96.4123C373.626 97.5922 374.089 98.4343 374.033 99.8368C374.033 99.8368 373.063 99.5587 372.399 99.3684C372.495 101.538 373.701 102.245 373.845 102.996C373.421 103.222 372.77 103.036 371.879 102.432C372.154 103.93 372.949 104.867 373.648 106.139C373.221 106.378 372.901 106.286 372.015 105.67C372.714 106.942 373.496 107.875 374.195 109.147C373.78 109.39 373.116 109.199 372.465 109.013C373.168 110.271 374.61 111.408 375.724 112.437C375.217 113.001 374.661 112.48 374.33 112.385C375.121 113.335 376.566 114.459 377.776 115.153C377.361 115.396 376.934 115.635 376.283 115.448C377.636 116.894 380.109 116.893 380.572 117.735C380.476 118.07 379.729 118.217 379.305 118.443C381.922 119.194 388.788 121.162 391.597 116.279C389.832 112.56 386.207 107.959 379.265 101.337C384.805 105.429 389.937 109.738 393.384 115.011C399.359 113.873 397.66 106.264 395.467 102.784ZM395.878 123.557C391.96 122.434 386.211 123.984 385.36 126.953C384.608 129.575 387.627 132.583 392.859 134.083C398.092 135.584 402.434 133.977 403.094 131.677C403.754 129.376 400.447 124.867 395.878 123.557ZM416.381 127.294C415.718 127.104 415.491 126.691 415.255 126.262C417.076 126.075 418.806 126.209 420.072 125.501C419.421 125.315 419.089 125.219 418.531 124.711C420.02 124.429 421.527 124.138 423.109 123.534C422.458 123.348 421.807 123.161 421.571 122.732C422.741 122.358 424.008 121.65 425.179 121.277C424.196 120.995 423.864 120.9 423.545 120.808C424.895 119.762 426.065 119.389 427.092 118.264C426.349 118.399 425.698 118.212 425.139 117.705C425.646 117.141 427.376 117.275 428.511 115.82C427.848 115.63 426.878 115.352 426.878 115.352C427.573 114.132 428.507 113.329 429.027 112.769C427.393 112.3 425.109 111.645 425.109 111.645L426.471 110.603C424.93 109.813 423.204 109.666 422.125 109.719C421.57 109.198 422.409 108.729 423.156 108.581C421.758 108.542 420.348 108.5 419.273 108.539C418.81 107.697 419.889 107.645 420.727 107.176C418.347 106.855 417.508 107.324 416.337 107.697C415.874 106.855 416.621 106.708 417.141 106.147C415.319 106.334 414.464 106.812 413.306 107.19C413.07 106.76 412.83 106.344 413.446 105.449C412.607 105.918 411.436 106.292 410.502 107.095C409.947 106.574 410.454 106.01 410.642 105.355C409.375 106.063 408.121 106.774 407.178 107.561C406.859 107.469 407.046 106.814 407.234 106.158C403.863 108.043 398.057 113.5 402.854 117.726C408.558 115.078 415.289 113.809 422.073 113.612C412.677 115.55 407.152 117.526 403.684 119.745C403.491 125.379 410.249 127.678 412.961 128.094C412.402 127.586 412.166 127.157 412.262 126.823C412.686 126.596 414.56 127.481 416.381 127.294ZM406.099 128.616C403.386 128.2 415.015 146.848 416.277 143.65C418.875 135.84 413.992 129.461 406.099 128.616ZM413.791 164.649C418.666 162.486 422.514 153.979 416.556 147.638C412.682 145.109 409.825 164.945 413.791 164.649ZM394.052 176.793C395.957 178.772 401.378 179.617 406.475 175.376C410.411 171.525 411.402 166.816 409.825 164.945C407.681 162.55 402.771 163.631 398.796 166.414C395.332 168.62 392.331 174.172 394.052 176.793ZM404.055 157.949C408.729 156.438 411.079 150.699 409.558 144.922C407.611 139.384 402.613 135.809 397.94 137.32C393.266 138.832 390.916 144.57 392.436 150.347C393.969 156.128 399.369 159.457 404.055 157.949ZM378.991 182.448C383.796 184.187 389.593 181.217 389.969 179.907C390.536 177.927 385.137 174.599 381.206 173.471C377.384 172.014 371.692 172.162 371.124 174.141C370.748 175.452 374.422 181.138 378.991 182.448ZM375.226 158.584C373.811 163.52 376.929 168.684 382.149 170.181C387.382 171.682 393.083 169.046 394.498 164.111C395.913 159.175 392.807 154.014 387.575 152.514C382.023 150.922 376.641 153.649 375.226 158.584ZM384.696 147.766C389.282 144.102 390.094 137.561 386.932 133.802C383.765 130.057 377.41 130.015 373.046 134.105C368.696 138.199 367.651 144.297 370.814 148.056C374.085 151.484 380.428 151.522 384.696 147.766ZM359.431 161.886C361.982 169.03 367.534 170.622 369.958 169.537C372.823 168.216 373.077 161.167 370.845 156.619C368.713 151.723 365.533 147.974 362.685 149.286C360.392 151.118 357.614 157.095 359.431 161.886ZM359.973 148.869C363.1 151.547 371.508 133.302 366.656 132.982C358.339 134.867 356.998 144.456 359.973 148.869Z" fill="#E16060"/>
<path d="M364.192 130.495L365.126 129.692C367.389 121.8 371.827 119.86 376.418 118.686C375.199 117.975 373.989 117.281 374.129 115.54C372.033 114.23 371.985 113.145 371.949 112.064C371.394 111.543 370.041 110.098 370.608 108.118C369.813 107.181 369.446 106.005 370.141 104.785C369.538 103.18 369.503 102.099 370.102 101.213C369.272 99.195 370.207 98.3919 370.822 97.4974C370.407 95.2363 371.954 93.5517 374.478 94.6233C375.92 93.2563 378.44 94.3407 378.772 94.4358C379.279 93.8718 380.039 93.728 381.576 94.5306C383.494 94.0094 384.796 94.3827 385.909 95.4115C387.919 94.5689 388.618 95.8404 389.509 96.4435C391.662 96.3516 391.697 97.4328 392.588 98.0359C394.646 98.2782 395.013 99.4545 395.715 100.713L396.685 100.991C399.162 103.482 399.661 107.909 399.84 109.741C401.058 107.948 403.412 104.7 407.151 103.992L408.121 104.27C409.384 103.575 410.319 102.772 412.192 103.657C413.267 103.618 413.87 102.72 415.647 103.939C416.39 103.804 417.137 103.656 418.12 103.938C418.452 104.033 418.675 104.459 419.246 104.971C420.736 104.688 422.038 105.062 422.737 106.333C424.466 106.467 424.929 107.31 425.165 107.739C425.497 107.834 428.197 108.247 428.708 110.173C431.748 110.698 432.154 112.942 430.617 114.643C430.984 115.82 431.115 116.567 429.246 118.173C429.709 119.015 429.014 120.234 427.415 120.847C427.371 122.253 426.756 123.147 425.17 123.764C425.017 125.5 422.781 125.93 422.261 126.491C421.658 127.389 421.042 128.283 418.57 128.284C417.766 129.834 416.372 129.782 414.962 129.739C418.552 133.258 420.876 137.485 418.706 145.055L419.073 146.232C422.807 150.502 424.415 160.936 415.709 166.632C414.718 168.838 413.595 170.296 412.377 172.089C409.227 179.364 401.972 181.206 400.242 181.072C397.394 182.383 394.306 183.278 390.34 183.574C386.129 185.927 382.154 186.206 378.568 185.178C374.968 184.146 371.745 181.803 369.421 177.575C366.214 175.223 364.07 172.828 362.349 170.206C360.811 169.404 355.635 163.997 356.832 156.162C356.736 153.992 356.557 152.16 356.565 149.673C351.551 140.042 358.443 132.046 364.192 130.495ZM368.809 130.386C368.197 133.772 387.937 124.131 385.416 123.047C378.275 119.58 370.848 122.069 368.809 130.386ZM395.467 102.784C395.279 103.439 394.864 103.682 394.772 104.003C394.069 102.745 393.702 101.568 393.003 100.297C392.815 100.952 393.039 101.378 392.2 101.847C391.833 100.671 391.37 99.8285 390.243 98.7961C390.623 99.976 389.867 100.107 389.452 100.35C388.657 99.4124 388.198 98.5575 386.752 97.4335C386.883 98.1805 387.451 98.705 386.6 99.1702C385.818 98.2365 385.25 97.7121 383.153 96.4015C383.297 97.1521 384.184 97.7681 383.664 98.3284C382.774 97.7253 381.568 97.0179 380.349 96.3067C380.821 97.1654 381.38 97.6733 380.633 97.8209C379.414 97.1097 378.3 96.081 376.479 96.268L377.178 97.5394C377.178 97.5394 374.88 96.8807 373.247 96.4123C373.626 97.5922 374.089 98.4343 374.033 99.8368C374.033 99.8368 373.063 99.5587 372.399 99.3684C372.495 101.538 373.701 102.245 373.845 102.996C373.421 103.222 372.77 103.036 371.879 102.432C372.154 103.93 372.949 104.867 373.648 106.139C373.221 106.378 372.901 106.286 372.015 105.67C372.714 106.942 373.496 107.875 374.195 109.147C373.78 109.39 373.116 109.199 372.465 109.013C373.168 110.271 374.61 111.408 375.724 112.437C375.217 113.001 374.661 112.48 374.33 112.385C375.121 113.335 376.566 114.459 377.776 115.153C377.361 115.396 376.934 115.635 376.283 115.448C377.636 116.894 380.109 116.893 380.572 117.735C380.476 118.07 379.729 118.217 379.305 118.443C381.922 119.194 388.788 121.162 391.597 116.279C389.832 112.56 386.207 107.959 379.265 101.337C384.805 105.429 389.937 109.738 393.384 115.011C399.359 113.873 397.66 106.264 395.467 102.784ZM395.878 123.557C391.96 122.434 386.211 123.984 385.36 126.953C384.608 129.575 387.627 132.583 392.859 134.083C398.092 135.584 402.434 133.977 403.094 131.677C403.754 129.376 400.447 124.867 395.878 123.557ZM416.381 127.294C415.718 127.104 415.491 126.691 415.255 126.262C417.076 126.075 418.806 126.209 420.072 125.501C419.421 125.315 419.089 125.219 418.531 124.711C420.02 124.429 421.527 124.138 423.109 123.534C422.458 123.348 421.807 123.161 421.571 122.732C422.741 122.358 424.008 121.65 425.179 121.277C424.196 120.995 423.864 120.9 423.545 120.808C424.895 119.762 426.065 119.389 427.092 118.264C426.349 118.399 425.698 118.212 425.139 117.705C425.646 117.141 427.376 117.275 428.511 115.82C427.848 115.63 426.878 115.352 426.878 115.352C427.573 114.132 428.507 113.329 429.027 112.769C427.393 112.3 425.109 111.645 425.109 111.645L426.471 110.603C424.93 109.813 423.204 109.666 422.125 109.719C421.57 109.198 422.409 108.729 423.156 108.581C421.758 108.542 420.348 108.5 419.273 108.539C418.81 107.697 419.889 107.645 420.727 107.176C418.347 106.855 417.508 107.324 416.337 107.697C415.874 106.855 416.621 106.708 417.141 106.147C415.319 106.334 414.464 106.812 413.306 107.19C413.07 106.76 412.83 106.344 413.446 105.449C412.607 105.918 411.436 106.292 410.502 107.095C409.947 106.574 410.454 106.01 410.642 105.355C409.375 106.063 408.121 106.774 407.178 107.561C406.859 107.469 407.046 106.814 407.234 106.158C403.863 108.043 398.057 113.5 402.854 117.726C408.558 115.078 415.289 113.809 422.073 113.612C412.677 115.55 407.152 117.526 403.684 119.745C403.491 125.379 410.249 127.678 412.961 128.094C412.402 127.586 412.166 127.157 412.262 126.823C412.686 126.596 414.56 127.481 416.381 127.294ZM406.099 128.616C403.386 128.2 415.015 146.848 416.277 143.65C418.875 135.84 413.992 129.461 406.099 128.616ZM413.791 164.649C418.666 162.486 422.514 153.979 416.556 147.638C412.682 145.109 409.825 164.945 413.791 164.649ZM394.052 176.793C395.957 178.772 401.378 179.617 406.475 175.376C410.411 171.525 411.402 166.816 409.825 164.945C407.681 162.55 402.771 163.631 398.796 166.414C395.332 168.62 392.331 174.172 394.052 176.793ZM404.055 157.949C408.729 156.438 411.079 150.699 409.558 144.922C407.611 139.384 402.613 135.809 397.94 137.32C393.266 138.832 390.916 144.57 392.436 150.347C393.969 156.128 399.369 159.457 404.055 157.949ZM378.991 182.448C383.796 184.187 389.593 181.217 389.969 179.907C390.536 177.927 385.137 174.599 381.206 173.471C377.384 172.014 371.692 172.162 371.124 174.141C370.748 175.452 374.422 181.138 378.991 182.448ZM375.226 158.584C373.811 163.52 376.929 168.684 382.149 170.181C387.382 171.682 393.083 169.046 394.498 164.111C395.913 159.175 392.807 154.014 387.575 152.514C382.023 150.922 376.641 153.649 375.226 158.584ZM384.696 147.766C389.282 144.102 390.094 137.561 386.932 133.802C383.765 130.057 377.41 130.015 373.046 134.105C368.696 138.199 367.651 144.297 370.814 148.056C374.085 151.484 380.428 151.522 384.696 147.766ZM359.431 161.886C361.982 169.03 367.534 170.622 369.958 169.537C372.823 168.216 373.077 161.167 370.845 156.619C368.713 151.723 365.533 147.974 362.685 149.286C360.392 151.118 357.614 157.095 359.431 161.886ZM359.973 148.869C363.1 151.547 371.508 133.302 366.656 132.982C358.339 134.867 356.998 144.456 359.973 148.869Z" stroke="#E16060" mask="url(#path-37-outside-1_13_57)"/>
<path d="M156.926 279.93L154.287 242.192C154.175 240.589 155.37 239.199 156.957 239.088L202.934 235.873C204.522 235.762 205.899 236.972 206.011 238.575L208.65 276.313M156.926 279.93L153.231 280.188C151.191 280.331 149.652 282.1 149.795 284.141L150.053 287.835C150.196 289.876 151.966 291.414 154.006 291.272L213.12 287.138C215.16 286.995 216.698 285.226 216.556 283.185L216.297 279.491C216.155 277.45 214.385 275.912 212.344 276.054L208.65 276.313M156.926 279.93L208.65 276.313M169.637 249.34L179.981 257.898L170.929 267.812M185.707 266.779L193.097 266.262" stroke="#8F8AB1" stroke-width="6" stroke-linecap="round" stroke-linejoin="round"/>
<defs>
<clipPath id="clip0_13_57">
<rect width="79.2956" height="79.2956" fill="white" transform="translate(279.816 10) rotate(19)"/>
</clipPath>
</defs>
</svg>
