<svg width="210" height="24" viewBox="0 0 210 24" fill="none" xmlns="http://www.w3.org/2000/svg">
<g clip-path="url(#clip0_877_10270)">
<g clip-path="url(#clip1_877_10270)">
<rect width="24" height="24" rx="12" fill="#644CF6"/>
<g clip-path="url(#clip2_877_10270)">
<path d="M10.0682 5.15125H6.90723V18.1464H10.0682V5.15125Z" fill="#F7F7F7"/>
<path d="M13.3906 4.9468L10.2217 6.20496L14.9768 18.1816L18.1457 16.9235L13.3906 4.9468Z" fill="#E0E7FF"/>
</g>
</g>
<path d="M34.18 16.78H38.78V19H31.38V5.04H34.18V16.78ZM50.8597 13.22C50.8597 13.62 50.833 13.98 50.7797 14.3H42.6797C42.7464 15.1 43.0264 15.7267 43.5197 16.18C44.013 16.6333 44.6197 16.86 45.3397 16.86C46.3797 16.86 47.1197 16.4133 47.5597 15.52H50.5797C50.2597 16.5867 49.6464 17.4667 48.7397 18.16C47.833 18.84 46.7197 19.18 45.3997 19.18C44.333 19.18 43.373 18.9467 42.5197 18.48C41.6797 18 41.0197 17.3267 40.5397 16.46C40.073 15.5933 39.8397 14.5933 39.8397 13.46C39.8397 12.3133 40.073 11.3067 40.5397 10.44C41.0064 9.57333 41.6597 8.90667 42.4997 8.44C43.3397 7.97333 44.3064 7.74 45.3997 7.74C46.453 7.74 47.393 7.96667 48.2197 8.42C49.0597 8.87333 49.7064 9.52 50.1597 10.36C50.6264 11.1867 50.8597 12.14 50.8597 13.22ZM47.9597 12.42C47.9464 11.7 47.6864 11.1267 47.1797 10.7C46.673 10.26 46.053 10.04 45.3197 10.04C44.6264 10.04 44.0397 10.2533 43.5597 10.68C43.093 11.0933 42.8064 11.6733 42.6997 12.42H47.9597ZM52.1834 13.42C52.1834 12.3 52.4034 11.3067 52.8434 10.44C53.2968 9.57333 53.9034 8.90667 54.6634 8.44C55.4368 7.97333 56.2968 7.74 57.2434 7.74C58.0701 7.74 58.7901 7.90667 59.4034 8.24C60.0301 8.57333 60.5301 8.99333 60.9034 9.5V7.92H63.7234V19H60.9034V17.38C60.5434 17.9 60.0434 18.3333 59.4034 18.68C58.7768 19.0133 58.0501 19.18 57.2234 19.18C56.2901 19.18 55.4368 18.94 54.6634 18.46C53.9034 17.98 53.2968 17.3067 52.8434 16.44C52.4034 15.56 52.1834 14.5533 52.1834 13.42ZM60.9034 13.46C60.9034 12.78 60.7701 12.2 60.5034 11.72C60.2368 11.2267 59.8768 10.8533 59.4234 10.6C58.9701 10.3333 58.4834 10.2 57.9634 10.2C57.4434 10.2 56.9634 10.3267 56.5234 10.58C56.0834 10.8333 55.7234 11.2067 55.4434 11.7C55.1768 12.18 55.0434 12.7533 55.0434 13.42C55.0434 14.0867 55.1768 14.6733 55.4434 15.18C55.7234 15.6733 56.0834 16.0533 56.5234 16.32C56.9768 16.5867 57.4568 16.72 57.9634 16.72C58.4834 16.72 58.9701 16.5933 59.4234 16.34C59.8768 16.0733 60.2368 15.7 60.5034 15.22C60.7701 14.7267 60.9034 14.14 60.9034 13.46ZM69.2581 9.64C69.6181 9.05333 70.0848 8.59333 70.6581 8.26C71.2448 7.92667 71.9115 7.76 72.6581 7.76V10.7H71.9181C71.0381 10.7 70.3715 10.9067 69.9181 11.32C69.4781 11.7333 69.2581 12.4533 69.2581 13.48V19H66.4581V7.92H69.2581V9.64ZM80.6841 7.76C82.0041 7.76 83.0707 8.18 83.8841 9.02C84.6974 9.84667 85.1041 11.0067 85.1041 12.5V19H82.3041V12.88C82.3041 12 82.0841 11.3267 81.6441 10.86C81.2041 10.38 80.6041 10.14 79.8441 10.14C79.0707 10.14 78.4574 10.38 78.0041 10.86C77.5641 11.3267 77.3441 12 77.3441 12.88V19H74.5441V7.92H77.3441V9.3C77.7174 8.82 78.1907 8.44667 78.7641 8.18C79.3507 7.9 79.9907 7.76 80.6841 7.76ZM96.0867 15.68H89.7267L88.5067 19H87.0267L92.1267 5.2H93.7067L98.7867 19H97.3067L96.0867 15.68ZM95.6667 14.52L92.9067 6.96L90.1467 14.52H95.6667ZM106.154 7.88C107.46 7.88 108.527 8.28667 109.354 9.1C110.18 9.9 110.594 11.0667 110.594 12.6V19H109.214V12.76C109.214 11.5733 108.914 10.6667 108.314 10.04C107.727 9.41333 106.92 9.1 105.894 9.1C104.84 9.1 104 9.43333 103.374 10.1C102.747 10.7667 102.434 11.7467 102.434 13.04V19H101.034V8.08H102.434V9.94C102.78 9.27333 103.28 8.76667 103.934 8.42C104.587 8.06 105.327 7.88 106.154 7.88ZM122.69 8.08L116.21 24.14H114.75L116.87 18.94L112.39 8.08H113.93L117.65 17.4L121.25 8.08H122.69ZM126.408 9.26V16.04C126.408 16.7067 126.535 17.1667 126.788 17.42C127.042 17.6733 127.488 17.8 128.128 17.8H129.408V19H127.908C126.922 19 126.188 18.7733 125.708 18.32C125.228 17.8533 124.988 17.0933 124.988 16.04V9.26H123.468V8.08H124.988V5.34H126.408V8.08H129.408V9.26H126.408ZM136.917 7.88C137.744 7.88 138.484 8.05333 139.137 8.4C139.804 8.74667 140.324 9.28 140.697 10C141.084 10.7067 141.277 11.5733 141.277 12.6V19H139.897V12.76C139.897 11.5733 139.597 10.6667 138.997 10.04C138.411 9.41333 137.604 9.1 136.577 9.1C135.524 9.1 134.684 9.43333 134.057 10.1C133.431 10.7667 133.117 11.7467 133.117 13.04V19H131.717V4.2H133.117V9.94C133.464 9.28667 133.971 8.78 134.637 8.42C135.317 8.06 136.077 7.88 136.917 7.88ZM145.073 6.02C144.793 6.02 144.553 5.92 144.353 5.72C144.153 5.52 144.053 5.27333 144.053 4.98C144.053 4.68667 144.153 4.44667 144.353 4.26C144.553 4.06 144.793 3.96 145.073 3.96C145.353 3.96 145.593 4.06 145.793 4.26C145.993 4.44667 146.093 4.68667 146.093 4.98C146.093 5.27333 145.993 5.52 145.793 5.72C145.593 5.92 145.353 6.02 145.073 6.02ZM145.773 8.08V19H144.373V8.08H145.773ZM154.064 7.88C155.37 7.88 156.437 8.28667 157.264 9.1C158.09 9.9 158.504 11.0667 158.504 12.6V19H157.124V12.76C157.124 11.5733 156.824 10.6667 156.224 10.04C155.637 9.41333 154.83 9.1 153.804 9.1C152.75 9.1 151.91 9.43333 151.284 10.1C150.657 10.7667 150.344 11.7467 150.344 13.04V19H148.944V8.08H150.344V9.94C150.69 9.27333 151.19 8.76667 151.844 8.42C152.497 8.06 153.237 7.88 154.064 7.88ZM166.18 7.92C167.207 7.92 168.1 8.16 168.86 8.64C169.62 9.12 170.167 9.72667 170.5 10.46V8.08H171.9V19.28C171.9 20.28 171.68 21.1667 171.24 21.94C170.813 22.7133 170.213 23.3067 169.44 23.72C168.667 24.1467 167.787 24.36 166.8 24.36C165.4 24.36 164.233 24.0267 163.3 23.36C162.38 22.6933 161.807 21.7867 161.58 20.64H162.96C163.2 21.4 163.653 22.0067 164.32 22.46C165 22.9133 165.827 23.14 166.8 23.14C167.507 23.14 168.14 22.9867 168.7 22.68C169.26 22.3867 169.7 21.9467 170.02 21.36C170.34 20.7733 170.5 20.08 170.5 19.28V16.58C170.153 17.3267 169.6 17.9467 168.84 18.44C168.093 18.92 167.207 19.16 166.18 19.16C165.18 19.16 164.28 18.9267 163.48 18.46C162.693 17.9933 162.073 17.3333 161.62 16.48C161.18 15.6267 160.96 14.64 160.96 13.52C160.96 12.4 161.18 11.42 161.62 10.58C162.073 9.72667 162.693 9.07333 163.48 8.62C164.28 8.15333 165.18 7.92 166.18 7.92ZM170.5 13.54C170.5 12.66 170.32 11.8867 169.96 11.22C169.6 10.5533 169.107 10.04 168.48 9.68C167.867 9.32 167.187 9.14 166.44 9.14C165.667 9.14 164.973 9.31333 164.36 9.66C163.747 10.0067 163.26 10.5133 162.9 11.18C162.553 11.8333 162.38 12.6133 162.38 13.52C162.38 14.4133 162.553 15.2 162.9 15.88C163.26 16.5467 163.747 17.06 164.36 17.42C164.973 17.7667 165.667 17.94 166.44 17.94C167.187 17.94 167.867 17.76 168.48 17.4C169.107 17.04 169.6 16.5267 169.96 15.86C170.32 15.1933 170.5 14.42 170.5 13.54Z" fill="#3C3C3C"/>
</g>
<defs>
<clipPath id="clip0_877_10270">
<rect width="210" height="24" fill="white"/>
</clipPath>
<clipPath id="clip1_877_10270">
<rect width="24" height="24" fill="white"/>
</clipPath>
<clipPath id="clip2_877_10270">
<rect width="14.4" height="14.4" fill="white" transform="translate(4.7998 4.80005)"/>
</clipPath>
</defs>
</svg>
