<svg width="524" height="332" viewBox="0 0 524 332" fill="none" xmlns="http://www.w3.org/2000/svg">
<path d="M199.722 48.7981C201.32 35.7828 213.126 25.2406 227.505 27.0061L246.657 29.3577C261.037 31.1234 269.941 44.2088 268.343 57.2239L258.784 135.072C258.653 136.143 258.454 137.191 258.195 138.21C267.454 138.144 276.756 140.347 284.347 143.57C285.637 144.117 290.695 146.123 294.857 150.213C297.545 152.855 299.854 156.275 301.215 160.449C302.308 163.801 302.495 166.763 302.487 168.715L302.473 169.488L302.472 169.497V169.507L302.108 181.097C302.05 186.225 300.415 189.885 300.082 190.67C298.512 194.37 296.235 197.322 293.587 199.587C293.681 204.463 292.917 209.515 290.811 214.476C288.411 220.128 284.972 224.359 281.094 227.517L281.266 229.966C285.642 231.068 289.912 232.684 293.963 234.869C297.004 231.829 300.575 229.063 304.711 226.675C308.946 224.23 313.412 222.4 317.822 221.155C318.229 220.892 318.725 220.579 319.293 220.251L320.57 219.514L321.473 219.093L336.575 212.035L336.576 212.038C339.968 210.445 344.849 208.941 350.518 209.433C353.629 204.436 357.587 200.09 362.226 196.489C373.45 187.775 387.047 184.601 398.782 184.601C401.969 184.601 405.063 184.842 408.018 185.287L407.982 184.929L407.941 184.147C407.203 170.078 417.857 159.925 429.147 158.196L429.712 158.11L430.281 158.05L449.404 156.087L449.976 156.029L450.741 155.989C465.95 155.192 474.981 166.967 476.654 177.019L476.729 177.495L476.792 177.94L476.839 178.385L477.208 181.93C478.304 181.919 479.51 181.878 480.838 181.809C490.735 181.29 498.493 186.415 503.026 192.615L503.454 193.218L503.46 193.227L512.015 205.636C514.416 209.04 516.499 213.663 516.794 219.298C516.952 222.302 516.599 225.071 515.879 227.592C516.809 228.602 517.811 229.797 518.759 231.159C519.923 232.833 523.141 237.691 523.504 244.614C523.841 251.049 521.697 256.006 520.08 258.922L519.828 259.377L519.556 259.82L512.47 271.342L512.319 271.587L512.161 271.828C510.036 275.097 503.707 283.391 491.674 284.022C485.549 284.343 480.545 282.368 477.239 280.439V280.441C476.617 280.078 475.9 279.668 475.112 279.22C471.774 281.73 467.586 283.466 462.518 283.898L443.724 285.923L443.095 285.99L442.463 286.024C436.496 286.336 430.43 284.427 425.613 280.691C416.225 286.189 405.931 288.873 395.806 288.873C395.221 288.873 394.636 288.86 394.05 288.841C392.333 293.396 389.081 298.256 382.988 301.774C377.561 304.908 371.599 307.16 368.081 308.558C364.061 310.156 362.002 311.082 360.632 311.923L360.367 312.091C359.58 312.602 358.782 313.09 357.976 313.555C345.475 320.772 330.157 322.668 316.337 318.826L313.14 321.85L313.125 321.863L313.111 321.876C308.638 326.089 302.815 328.963 296.152 329.429C294.73 329.528 293.583 329.466 293.501 329.462C293.127 329.446 292.818 329.423 292.624 329.407C292.22 329.375 291.861 329.336 291.58 329.303C290.998 329.234 290.392 329.146 289.774 329.04C288.53 328.828 287.023 328.508 285.334 328.038C282.995 327.387 280.09 326.385 276.954 324.838C273.241 327.784 268.592 329.72 263.286 330.091L244.132 331.43C230.311 332.396 218.399 322.04 217.433 308.22L212.216 233.615C210.753 233.848 209.437 234.041 208.342 234.208C204.065 234.861 201.849 235.301 200.325 235.812L200.029 235.915C199.147 236.236 198.26 236.532 197.37 236.804C171.736 244.641 140.76 232.425 131.987 203.731C128.903 193.642 128.75 180.987 133.352 169.184C136.436 161.271 141.647 153.867 149.114 148.206C144.887 145.895 140.97 143.014 137.518 139.615C128.374 144.978 117.91 147.873 108.134 147.873C104.267 147.873 100.411 147.447 96.6457 146.625C89.6058 155.413 80.6012 161.726 70.7912 165.296C46.3899 174.177 14.4724 165.663 3.48846 135.486C-2.56155 118.863 -0.464579 102.847 7.63885 89.968C15.206 77.9416 26.8973 70.3079 37.925 66.2942C45.6513 63.4822 53.3477 62.3875 60.0432 62.6956C62.0941 62.79 64.3909 63.032 66.7756 63.5423C68.6853 61.1282 70.8267 58.886 73.1877 56.8372C83.9202 47.524 97.5191 43.601 110.438 43.6008C125.94 43.6008 138.775 49.2774 147.985 58.261C157.124 52.9308 167.483 50.6009 177.438 50.6008C185.362 50.6008 192.59 52.0846 198.992 54.7346L199.722 48.7981ZM503.249 243.175C503.358 243.115 503.466 243.054 503.572 242.993L492.225 222.99L503.249 243.175ZM314.258 38.6008C326.132 38.6008 335.758 48.2267 335.758 60.1008C335.758 71.9748 326.132 81.6008 314.258 81.6008C302.384 81.6007 292.758 71.9747 292.758 60.1008C292.758 48.2268 302.384 38.601 314.258 38.6008Z" fill="white"/>
<path d="M287.356 23.3037C288.296 22.8458 289.405 22.9092 290.286 23.4717L331.819 50.0029C332.804 50.6318 333.333 51.7751 333.177 52.9326L330.725 71.0858C330.625 71.8213 331.297 72.4478 331.999 72.6895C332.751 72.9485 333.37 73.4959 333.719 74.2109L339.863 86.8096C340.59 88.2986 339.971 90.0949 338.482 90.8213L309.085 105.16C308.37 105.509 307.545 105.559 306.793 105.3C306.041 105.041 305.422 104.493 305.073 103.778L298.928 91.1797C298.09 89.4619 297.925 86.6727 296.275 85.7082L282.494 77.6524C281.486 77.0628 280.911 75.9412 281.021 74.7783L285.685 25.7158L285.709 25.5225C285.863 24.5631 286.476 23.7332 287.356 23.3037ZM307.14 90.5127C307.134 90.5153 307.128 90.517 307.123 90.5195C306.302 90.9203 305.961 91.911 306.361 92.7325L307.393 94.848C308.364 96.838 310.764 97.6644 312.754 96.6938L329.552 88.5007C331.542 87.5301 332.368 85.1298 331.397 83.1398C330.427 81.1501 328.027 80.3239 326.037 81.2946L307.14 90.5127ZM304.148 50.8891C305.134 52.9105 307.364 53.9302 309.54 54.5013C309.772 54.5623 310.004 54.6325 310.234 54.7119L310.697 54.8848C315.261 56.7196 317.704 61.7269 316.34 66.4531L316.19 66.9248C314.517 71.7853 309.333 74.4399 304.449 73.0303L303.978 72.8818C298.96 71.1542 296.294 65.6861 298.021 60.669L298.194 60.2051C298.223 60.1337 298.252 60.0629 298.283 59.9926C299.171 57.9263 299.741 55.5412 298.755 53.5195C296.452 48.7961 289.396 50.0764 288.898 55.3082L287.704 67.874C287.381 71.2679 289.058 74.5404 292.001 76.2609L297.389 79.4109C302.738 82.5378 309.296 82.7844 314.865 80.0681L315.151 79.9287C320.719 77.2125 324.561 71.8932 325.39 65.7535L326.226 59.5672C326.682 56.189 325.135 52.8532 322.263 51.0181L311.625 44.2233C307.197 41.3946 301.844 46.1662 304.148 50.8891ZM308.28 60.3857C307.345 60.0636 306.367 60.1481 305.541 60.5459C305.535 60.5487 305.53 60.552 305.524 60.5547C305.519 60.5573 305.513 60.5589 305.508 60.5615C304.737 60.9422 304.102 61.5973 303.76 62.4482L303.694 62.6221C303.046 64.5061 304.048 66.5593 305.932 67.208L306.108 67.2647C307.942 67.7938 309.889 66.7968 310.518 64.9717L310.573 64.794C311.085 63.0191 310.168 61.1391 308.454 60.4502L308.28 60.3857Z" fill="#E16060" stroke="white" stroke-width="46" stroke-linecap="round" stroke-linejoin="round"/>
<path d="M79.5582 156.992C79.8253 154.799 81.819 153.238 84.0119 153.505C86.2048 153.772 87.7657 155.766 87.4986 157.959L80.2315 217.62L80.2015 217.824C79.8396 219.909 77.9013 221.366 75.7768 221.107C73.584 220.84 72.0228 218.845 72.29 216.652L79.5582 156.992ZM57.7671 171.229C59.0656 169.442 61.5675 169.046 63.3547 170.344C65.1419 171.643 65.5382 174.145 64.2397 175.932C57.9577 184.578 59.8747 196.679 68.5207 202.961L68.6838 203.086C70.3309 204.414 70.6634 206.816 69.4056 208.548C68.1476 210.279 65.7606 210.705 63.9877 209.549L63.818 209.433L44.9277 195.708C43.1404 194.41 42.7442 191.908 44.0427 190.121L57.7671 171.229ZM102.021 203.382C100.723 205.169 98.2211 205.565 96.4339 204.267C94.6471 202.968 94.2511 200.467 95.5491 198.68L102.021 203.382ZM114.862 178.904C116.649 180.202 117.046 182.704 115.747 184.491L102.021 203.382L95.5491 198.68C101.83 190.034 99.9139 177.933 91.268 171.651L95.9706 165.178L114.862 178.904ZM90.383 166.063C91.6815 164.276 94.1834 163.88 95.9706 165.178L91.268 171.651C89.4811 170.352 89.0847 167.851 90.383 166.063Z" fill="#8F8AB1"/>
<path d="M102.021 203.382C100.723 205.169 98.2211 205.565 96.4339 204.267C94.6471 202.968 94.2511 200.467 95.5491 198.68M102.021 203.382L95.5491 198.68M102.021 203.382L115.747 184.491C117.046 182.704 116.649 180.202 114.862 178.904L95.9706 165.178M95.5491 198.68V198.68C101.83 190.034 99.9139 177.933 91.268 171.651V171.651M91.268 171.651L95.9706 165.178M91.268 171.651C89.4811 170.352 89.0847 167.851 90.383 166.063C91.6815 164.276 94.1834 163.88 95.9706 165.178M79.5582 156.992C79.8253 154.799 81.819 153.238 84.0119 153.505C86.2048 153.772 87.7657 155.766 87.4986 157.959L80.2315 217.62L80.2015 217.824C79.8396 219.909 77.9013 221.366 75.7768 221.107C73.584 220.84 72.0228 218.845 72.29 216.652L79.5582 156.992ZM57.7671 171.229C59.0656 169.442 61.5675 169.046 63.3547 170.344C65.1419 171.643 65.5382 174.145 64.2397 175.932V175.932C57.9577 184.578 59.8747 196.679 68.5207 202.961V202.961L68.6838 203.086C70.3309 204.414 70.6634 206.816 69.4056 208.548C68.1476 210.279 65.7606 210.705 63.9877 209.549L63.818 209.433L44.9277 195.708C43.1404 194.41 42.7442 191.908 44.0427 190.121L57.7671 171.229Z" stroke="white" stroke-width="46" stroke-linecap="round" stroke-linejoin="round"/>
<path d="M207.788 240.468C210.822 240.411 213.374 242.686 213.733 245.666L213.762 245.967L216.141 280.008C216.168 280.396 216.505 280.689 216.894 280.662L217.238 280.646C220.784 280.579 223.798 283.304 224.048 286.882L224.307 290.576L224.322 290.921C224.388 294.352 221.838 297.286 218.431 297.698L218.087 297.731L158.974 301.865C155.396 302.115 152.278 299.51 151.852 295.989L151.818 295.646L151.561 291.951C151.302 288.258 154.087 285.054 157.78 284.796C158.168 284.768 158.46 284.432 158.432 284.045L156.053 250.002C155.827 246.775 158.238 243.925 161.506 243.696L207.483 240.481L207.788 240.468ZM158.198 290.781C157.811 290.809 157.519 291.145 157.546 291.532L157.804 295.227L157.828 295.367C157.916 295.682 158.216 295.903 158.555 295.88L217.668 291.746L217.809 291.722C218.079 291.647 218.279 291.416 218.316 291.138L218.321 290.995L218.062 287.301C218.035 286.913 217.699 286.62 217.312 286.647L158.198 290.781ZM179.371 248.461C169.802 249.13 162.586 257.43 163.255 267C163.924 276.57 172.224 283.785 181.794 283.116L192.877 282.341C202.447 281.672 209.663 273.372 208.994 263.802C208.325 254.232 200.024 247.017 190.455 247.686L179.371 248.461ZM172.084 255.027C173.107 253.791 174.914 253.585 176.187 254.533L176.308 254.629L186.652 263.187C187.285 263.71 187.675 264.47 187.732 265.289C187.79 266.108 187.509 266.915 186.955 267.521L177.902 277.436C176.785 278.659 174.888 278.746 173.664 277.629C172.441 276.512 172.355 274.614 173.472 273.391C177.242 269.261 176.792 262.816 172.483 259.252L172.366 259.15C171.196 258.078 171.061 256.264 172.084 255.027ZM197.646 270.87C199.298 270.755 200.732 272.001 200.848 273.653C200.963 275.306 199.716 276.74 198.063 276.855L190.675 277.372C189.022 277.488 187.588 276.242 187.473 274.589C187.357 272.936 188.603 271.502 190.256 271.387L197.646 270.87Z" fill="#8F8AB1" stroke="white" stroke-width="46" stroke-linecap="round" stroke-linejoin="round"/>
<path d="M355.845 66.4356C356.933 63.5754 360.754 62.9659 362.677 65.3457L362.863 65.5938L387.863 101.584C390.452 105.312 394.04 108.234 398.214 110.016C409.737 114.934 423.107 110.223 429 99.1673L438.839 80.71L438.928 80.5527C439.386 79.7807 440.091 79.1834 440.931 78.8594L454.418 73.6602L454.713 73.5596C456.099 73.1456 457.603 73.5129 458.641 74.5195L458.856 74.7451L467.796 84.874L467.928 85.0303C470.589 88.3235 466.876 93.0372 463.005 91.0977C459.616 89.3993 455.58 91.6456 455.238 95.4211L453.447 115.165C452.66 123.849 457.916 131.943 466.169 134.756L474.756 137.683L475.091 137.812C478.436 139.264 478.224 144.228 474.605 145.303L450.466 152.47C449.77 152.677 449.252 153.264 449.133 153.98C449.009 154.728 448.675 155.423 448.174 155.985L447.949 156.218C440.042 163.766 429.277 167.558 418.385 166.633L417.995 166.6C408.04 165.754 398.14 168.76 390.337 174.999L359.994 199.256C356.685 201.901 352.073 198.262 353.876 194.429L378.312 142.507C379.239 140.539 379.873 138.446 380.195 136.295C380.84 131.988 380.213 127.586 378.391 123.63L354.977 72.7822C354.57 71.8978 354.499 70.8948 354.778 69.9619L355.746 66.7285L355.845 66.4356ZM381.748 149.298C377.128 159.114 388.938 168.435 397.412 161.661L399.679 159.849C406.465 154.378 402.597 143.417 393.881 143.417H391.016C387.049 143.417 383.438 145.708 381.748 149.298ZM419.534 151.548C415.815 154.547 417.651 160.548 422.411 160.953C426.154 161.271 429.031 157.7 427.922 154.11C426.817 150.532 422.45 149.198 419.534 151.548ZM440.649 151.33C440.336 152.687 441.977 153.622 442.984 152.661C443.204 152.451 443.35 152.176 443.4 151.877L443.614 150.592L443.671 150.312C444.003 148.932 445.046 147.821 446.421 147.413L448.449 146.811C454.174 145.111 454.334 137.062 448.681 135.136C446.934 134.54 445.821 132.827 445.988 130.988L446.404 126.396L440.649 151.33ZM444.908 83.7552C444.183 84.0347 443.583 84.5659 443.217 85.2517L425.963 117.621C424.116 121.085 423.562 125.093 424.399 128.929L426.026 136.387C426.26 137.456 427.039 138.324 428.077 138.671C429.027 138.988 429.766 139.744 430.061 140.701L430.126 140.912C431.193 144.366 436.141 144.186 436.953 140.664L449.222 87.5003C449.805 84.9738 447.327 82.8227 444.908 83.7552ZM387.222 129.884C386.629 133.851 389.701 137.417 393.712 137.417H410.915C415.641 137.417 419.157 133.05 418.149 128.433C417.638 126.091 416.026 124.142 413.822 123.202L407.183 120.368C399.022 116.884 389.655 121.35 387.222 129.884ZM379.777 112.293C381.097 115.16 385.271 114.838 386.137 111.802C386.416 110.822 386.241 109.767 385.659 108.93C383.29 105.518 378.039 108.52 379.777 112.293ZM455.078 79.836C454.828 79.9323 454.811 80.2794 455.051 80.3993C455.354 80.5513 455.644 80.1737 455.42 79.9196C455.334 79.8229 455.198 79.7896 455.078 79.836Z" fill="#E16060" stroke="white" stroke-width="46"/>
<path d="M499.964 247.77L492.878 259.293C492.166 260.388 491.429 261.003 490.471 261.053C489.991 261.078 489.406 260.917 488.811 260.563C483.357 257.388 470.987 250.635 465.937 247.823C465.341 247.47 464.726 246.733 464.681 245.87C464.656 245.391 464.822 244.901 465.271 244.301L471.918 235.397C467.175 238.433 462.891 241.061 461.023 242.12L460.463 242.438L462.185 258.786C462.246 259.937 461.529 260.936 460.378 260.996L441.26 263.055C440.205 263.111 439.207 262.394 439.05 261.249L430.919 183.135L430.909 182.943C430.859 181.985 431.676 181.077 432.63 180.931L451.753 178.967L451.945 178.957C453 178.902 453.812 179.724 453.963 180.774L458.207 221.407C461.977 218.134 477.824 204.998 482.042 204.777C482.809 204.737 483.692 205.075 484.524 206.281L493.159 218.807C493.573 219.362 493.795 219.927 493.825 220.502C493.875 221.461 493.345 222.354 492.225 222.989C489.888 224.265 484.58 227.524 478.993 230.989C485.815 232.746 500.349 242.27 500.535 245.818C500.565 246.393 500.404 246.978 499.964 247.77Z" fill="#DF5757"/>
<path d="M417.022 214.897L412.51 226.513C412.126 227.665 411.07 228.625 409.918 228.625C409.534 228.625 409.054 228.433 408.67 228.145C406.942 226.705 403.582 225.649 400.222 225.649C397.726 225.649 389.374 226.225 389.374 236.689C389.374 243.121 393.982 247.345 400.222 247.345C404.35 247.345 409.15 245.521 413.758 241.297C414.334 240.721 415.198 240.241 416.062 240.241C416.734 240.241 417.502 240.625 418.174 241.777C419.902 245.041 421.054 246.769 422.59 249.937C422.878 250.513 423.07 251.185 423.07 251.857C423.07 253.009 422.59 254.065 421.438 255.217C413.662 262.609 404.446 265.873 395.806 265.873C379.87 265.873 365.758 254.737 365.758 237.841C365.758 216.337 382.942 207.601 398.782 207.601C409.438 207.601 417.118 211.825 417.118 214.225C417.118 214.417 417.118 214.705 417.022 214.897Z" fill="#DF5757"/>
<path d="M372.247 265.122L372.901 278.158C372.968 280.003 372.569 281.232 371.488 281.856C370.657 282.336 364.069 284.365 357.656 282.858C354.629 287.599 350.715 291.188 346.475 293.636C332.591 301.652 314.475 297.922 306.747 284.537C300.987 274.561 299.75 256.098 316.211 246.594C320.368 244.194 324.97 242.756 329.029 242.298C329.191 241.428 329.796 240.746 330.793 240.17L331.209 239.93L346.312 232.873C348.57 231.791 349.776 232.536 350.352 233.534L350.592 233.95C353.796 242.187 356.808 250.092 359.976 255.579C362.856 260.568 365.834 263.615 369.311 263.492C370.382 263.428 371.585 263.399 372.065 264.23C372.161 264.396 372.221 264.694 372.247 265.122ZM344.384 273.117C342.886 271.099 341.376 268.868 339.888 266.29C338.64 264.129 337.427 261.836 336.153 259.246C334.196 258.159 331.279 258.291 328.868 259.683C323.63 262.707 323.648 269.459 326.096 273.699C328.784 278.354 334.331 280.473 339.735 277.353C341.314 276.441 342.951 275.052 344.384 273.117Z" fill="#DF5757"/>
<path d="M305.916 297.029L297.34 305.135C296.347 306.07 295.409 306.425 294.548 306.485C294.165 306.512 276.22 304.494 274.861 285.054C274.05 273.466 268.4 269.723 261.504 270.205L261.026 270.239L263.456 305.002C263.537 306.151 262.735 307.073 261.682 307.147L242.528 308.486C241.379 308.567 240.457 307.765 240.377 306.616L234.899 228.279C234.825 227.226 235.62 226.208 236.769 226.127L255.923 224.788C256.976 224.715 257.905 225.612 257.979 226.665L259.72 251.565C260.862 251.388 262.011 251.308 263.065 251.234C281.069 249.975 296.184 259.697 297.797 278.638C298.328 284.856 299.908 289.558 304.862 292.964C305.47 293.403 306.59 294.287 306.664 295.341C306.697 295.819 306.546 296.407 305.916 297.029Z" fill="#DF5757"/>
<path d="M235.153 209.832L234.181 209.419C232.237 208.594 231.504 207.865 231.611 206.138L232.074 194.237C232.098 193.934 232.122 193.632 232.197 193.455C232.76 192.129 234.602 192.703 235.663 193.153C240.914 195.278 244.439 193.854 245.339 191.733C245.826 190.584 245.278 188.682 244.716 186.567L243.455 182.903C241.443 176.834 241.465 172.359 242.89 169.001C247.129 159.015 263.784 159.827 275.36 164.741C278.806 166.204 279.54 166.933 279.483 168.786L279.109 180.724C279.135 181.153 279.023 181.418 278.91 181.683C278.498 182.655 277.376 182.596 276.227 182.108L275.873 181.958C270.571 179.708 267.789 180.612 267.038 182.38C266.401 183.882 267.013 186.124 268.796 191.261C270.985 197.405 271.065 202.131 269.639 205.489C265.213 215.917 246.995 214.858 235.153 209.832Z" fill="#DF5757"/>
<path d="M222.171 192.823L219.875 205.672C219.526 207.485 218.86 208.592 217.667 208.957C216.749 209.238 209.873 209.734 203.964 206.822C199.948 210.76 195.327 213.378 190.645 214.809C175.314 219.497 158.501 211.787 153.982 197.007C150.614 185.99 153.562 167.722 171.739 162.164C176.329 160.761 181.137 160.396 185.194 160.862C185.549 160.051 186.291 159.523 187.392 159.186L187.851 159.045L204.155 155.567C206.598 155.021 207.605 156.018 207.942 157.119L208.082 157.578C209.351 166.326 210.508 174.706 212.36 180.765C214.044 186.273 216.261 189.912 219.676 190.574C220.734 190.753 221.913 190.995 222.193 191.913C222.25 192.097 222.242 192.4 222.171 192.823ZM193.223 194.345C192.218 192.043 191.248 189.528 190.378 186.682C189.648 184.295 188.982 181.789 188.324 178.978C186.661 177.479 183.789 176.952 181.127 177.766C175.343 179.534 173.842 186.116 175.273 190.798C176.845 195.939 181.773 199.251 187.74 197.427C189.484 196.894 191.392 195.909 193.223 194.345Z" fill="#DF5757"/>
<path d="M233.816 133.94L214.664 131.589C213.616 131.46 212.864 130.497 212.992 129.449L222.551 51.6016C222.691 50.4581 223.654 49.7059 224.702 49.8346L243.854 52.1862C244.902 52.3149 245.655 53.2777 245.514 54.4211L235.956 132.269C235.827 133.317 234.864 134.069 233.816 133.94Z" fill="#DF5757"/>
<path d="M207.774 102.689C207.774 121.409 188.766 131.873 175.134 131.873C159.486 131.873 145.758 120.545 145.758 103.649C145.758 83.8726 160.542 73.6006 177.438 73.6006C198.654 73.6006 207.774 90.2086 207.774 102.689ZM177.438 113.537C184.254 113.537 187.326 107.969 187.326 102.497C187.326 100.673 186.942 91.3606 177.15 91.3606C169.086 91.3606 166.782 98.1766 166.782 102.497C166.782 109.121 171.966 113.537 177.438 113.537Z" fill="#DF5757"/>
<path d="M140.774 95.6886C140.774 114.409 121.766 124.873 108.134 124.873C92.4863 124.873 78.7583 113.545 78.7583 96.6486C78.7583 76.8726 93.5423 66.6006 110.438 66.6006C131.654 66.6006 140.774 83.2086 140.774 95.6886ZM110.438 106.537C117.254 106.537 120.326 100.969 120.326 95.4966C120.326 93.6726 119.942 84.3606 110.15 84.3606C102.086 84.3606 99.7823 91.1766 99.7823 95.4966C99.7823 102.121 104.966 106.537 110.438 106.537Z" fill="#DF5757"/>
<path d="M65.4261 88.5251L65.1591 100.984C65.1923 102.198 64.5283 103.461 63.4458 103.855C63.0849 103.986 62.5682 103.97 62.1089 103.831C59.9926 103.069 56.474 103.225 53.3167 104.375C50.9712 105.228 43.3199 108.626 46.8988 118.459C49.0986 124.503 54.8734 126.896 60.7371 124.762C64.6162 123.35 68.5028 119.995 71.3883 114.449C71.7325 113.711 72.3802 112.965 73.1921 112.669C73.8236 112.439 74.6766 112.537 75.7021 113.39C78.4423 115.866 80.1158 117.096 82.6427 119.548C83.1103 119.99 83.5206 120.556 83.7504 121.188C84.1444 122.27 84.0545 123.427 83.366 124.903C78.5872 134.509 71.0433 140.728 62.9244 143.683C47.9494 149.134 30.8798 143.496 25.101 127.619C17.7462 107.412 30.906 93.3252 45.7907 87.9076C55.8041 84.263 64.4656 85.6056 65.2865 87.8608C65.3521 88.0413 65.4506 88.3119 65.4261 88.5251Z" fill="#DF5757"/>
<mask id="mask0_100_351" style="mask-type:alpha" maskUnits="userSpaceOnUse" x="22" y="49" width="479" height="260">
<path d="M499.964 247.77L492.878 259.293C492.166 260.388 491.429 261.003 490.471 261.053C489.991 261.078 489.406 260.917 488.811 260.563C483.357 257.388 470.987 250.635 465.937 247.823C465.341 247.47 464.726 246.733 464.681 245.87C464.656 245.391 464.822 244.901 465.271 244.301L471.918 235.397C467.175 238.433 462.891 241.061 461.023 242.12L460.463 242.438L462.185 258.786C462.246 259.937 461.529 260.936 460.378 260.996L441.26 263.055C440.205 263.111 439.207 262.394 439.05 261.249L430.919 183.135L430.909 182.943C430.859 181.985 431.676 181.077 432.63 180.931L451.753 178.967L451.945 178.957C453 178.902 453.812 179.724 453.963 180.774L458.207 221.407C461.977 218.134 477.824 204.998 482.042 204.777C482.809 204.737 483.692 205.075 484.524 206.281L493.159 218.807C493.573 219.362 493.795 219.927 493.825 220.502C493.875 221.461 493.345 222.354 492.225 222.989C489.888 224.265 484.58 227.524 478.993 230.989C485.815 232.746 500.349 242.27 500.535 245.818C500.565 246.393 500.404 246.978 499.964 247.77Z" fill="black"/>
<path d="M417.022 214.897L412.51 226.513C412.126 227.665 411.07 228.625 409.918 228.625C409.534 228.625 409.054 228.433 408.67 228.145C406.942 226.705 403.582 225.649 400.222 225.649C397.726 225.649 389.374 226.225 389.374 236.689C389.374 243.121 393.982 247.345 400.222 247.345C404.35 247.345 409.15 245.521 413.758 241.297C414.334 240.721 415.198 240.241 416.062 240.241C416.734 240.241 417.502 240.625 418.174 241.777C419.902 245.041 421.054 246.769 422.59 249.937C422.878 250.513 423.07 251.185 423.07 251.857C423.07 253.009 422.59 254.065 421.438 255.217C413.662 262.609 404.446 265.873 395.806 265.873C379.87 265.873 365.758 254.737 365.758 237.841C365.758 216.337 382.942 207.601 398.782 207.601C409.438 207.601 417.118 211.825 417.118 214.225C417.118 214.417 417.118 214.705 417.022 214.897Z" fill="black"/>
<path d="M372.247 265.122L372.901 278.158C372.968 280.003 372.569 281.232 371.488 281.856C370.657 282.336 364.069 284.365 357.656 282.858C354.629 287.599 350.715 291.188 346.475 293.636C332.591 301.652 314.475 297.922 306.747 284.537C300.987 274.561 299.75 256.098 316.211 246.594C320.368 244.194 324.97 242.756 329.029 242.298C329.191 241.428 329.796 240.746 330.793 240.17L331.209 239.93L346.312 232.873C348.57 231.791 349.776 232.536 350.352 233.534L350.592 233.95C353.796 242.187 356.808 250.092 359.976 255.579C362.856 260.568 365.834 263.615 369.311 263.492C370.382 263.428 371.585 263.399 372.065 264.23C372.161 264.396 372.221 264.694 372.247 265.122ZM344.384 273.117C342.886 271.099 341.376 268.868 339.888 266.29C338.64 264.129 337.427 261.836 336.153 259.246C334.196 258.159 331.279 258.291 328.868 259.683C323.63 262.707 323.648 269.459 326.096 273.699C328.784 278.354 334.331 280.473 339.735 277.353C341.314 276.441 342.951 275.052 344.384 273.117Z" fill="black"/>
<path d="M305.916 297.029L297.34 305.135C296.347 306.07 295.409 306.425 294.548 306.485C294.165 306.512 276.22 304.494 274.861 285.054C274.05 273.466 268.4 269.723 261.504 270.205L261.026 270.239L263.456 305.002C263.537 306.151 262.735 307.073 261.682 307.147L242.528 308.486C241.379 308.567 240.457 307.765 240.377 306.616L234.899 228.279C234.825 227.226 235.62 226.208 236.769 226.127L255.923 224.788C256.976 224.715 257.905 225.612 257.979 226.665L259.72 251.565C260.862 251.388 262.011 251.308 263.065 251.234C281.069 249.975 296.184 259.697 297.797 278.638C298.328 284.856 299.908 289.558 304.862 292.964C305.47 293.403 306.59 294.287 306.664 295.341C306.697 295.819 306.546 296.407 305.916 297.029Z" fill="black"/>
<path d="M235.153 209.832L234.181 209.419C232.237 208.594 231.504 207.865 231.611 206.138L232.074 194.237C232.098 193.934 232.122 193.632 232.197 193.455C232.76 192.129 234.602 192.703 235.663 193.153C240.914 195.278 244.439 193.854 245.339 191.733C245.826 190.584 245.278 188.682 244.716 186.567L243.455 182.903C241.443 176.834 241.465 172.359 242.89 169.001C247.129 159.015 263.784 159.827 275.36 164.741C278.806 166.204 279.54 166.933 279.483 168.786L279.109 180.724C279.135 181.153 279.023 181.418 278.91 181.683C278.498 182.655 277.376 182.596 276.227 182.108L275.873 181.958C270.571 179.708 267.789 180.612 267.038 182.38C266.401 183.882 267.013 186.124 268.796 191.261C270.985 197.405 271.065 202.131 269.639 205.489C265.213 215.917 246.995 214.858 235.153 209.832Z" fill="black"/>
<path d="M222.171 192.823L219.875 205.672C219.526 207.485 218.86 208.592 217.667 208.957C216.749 209.238 209.873 209.734 203.964 206.822C199.948 210.76 195.327 213.378 190.645 214.809C175.314 219.497 158.501 211.787 153.982 197.007C150.614 185.99 153.562 167.722 171.739 162.164C176.329 160.761 181.137 160.396 185.194 160.862C185.549 160.051 186.291 159.523 187.392 159.186L187.851 159.045L204.155 155.567C206.598 155.021 207.605 156.018 207.942 157.119L208.082 157.578C209.351 166.326 210.508 174.706 212.36 180.765C214.044 186.273 216.261 189.912 219.676 190.574C220.734 190.753 221.913 190.995 222.193 191.913C222.25 192.097 222.242 192.4 222.171 192.823ZM193.223 194.345C192.218 192.043 191.248 189.528 190.378 186.682C189.648 184.295 188.982 181.789 188.324 178.978C186.661 177.479 183.789 176.952 181.127 177.766C175.343 179.534 173.842 186.116 175.273 190.798C176.845 195.939 181.773 199.251 187.74 197.427C189.484 196.894 191.392 195.909 193.223 194.345Z" fill="black"/>
<path d="M233.816 133.94L214.664 131.589C213.616 131.46 212.864 130.497 212.992 129.449L222.551 51.6016C222.691 50.4581 223.654 49.7059 224.702 49.8346L243.854 52.1862C244.902 52.3149 245.655 53.2777 245.514 54.4211L235.956 132.269C235.827 133.317 234.864 134.069 233.816 133.94Z" fill="black"/>
<path d="M207.774 102.689C207.774 121.409 188.766 131.873 175.134 131.873C159.486 131.873 145.758 120.545 145.758 103.649C145.758 83.8726 160.542 73.6006 177.438 73.6006C198.654 73.6006 207.774 90.2086 207.774 102.689ZM177.438 113.537C184.254 113.537 187.326 107.969 187.326 102.497C187.326 100.673 186.942 91.3606 177.15 91.3606C169.086 91.3606 166.782 98.1766 166.782 102.497C166.782 109.121 171.966 113.537 177.438 113.537Z" fill="black"/>
<path d="M140.774 95.6886C140.774 114.409 121.766 124.873 108.134 124.873C92.4863 124.873 78.7583 113.545 78.7583 96.6486C78.7583 76.8726 93.5423 66.6006 110.438 66.6006C131.654 66.6006 140.774 83.2086 140.774 95.6886ZM110.438 106.537C117.254 106.537 120.326 100.969 120.326 95.4966C120.326 93.6726 119.942 84.3606 110.15 84.3606C102.086 84.3606 99.7823 91.1766 99.7823 95.4966C99.7823 102.121 104.966 106.537 110.438 106.537Z" fill="black"/>
<path d="M65.4261 88.5251L65.1591 100.984C65.1923 102.198 64.5283 103.461 63.4458 103.855C63.0849 103.986 62.5682 103.97 62.1089 103.831C59.9926 103.069 56.474 103.225 53.3167 104.375C50.9712 105.228 43.3199 108.626 46.8988 118.459C49.0986 124.503 54.8734 126.896 60.7371 124.762C64.6162 123.35 68.5028 119.995 71.3883 114.449C71.7325 113.711 72.3802 112.965 73.1921 112.669C73.8236 112.439 74.6766 112.537 75.7021 113.39C78.4423 115.866 80.1158 117.096 82.6427 119.548C83.1103 119.99 83.5206 120.556 83.7504 121.188C84.1444 122.27 84.0545 123.427 83.366 124.903C78.5872 134.509 71.0433 140.728 62.9244 143.683C47.9494 149.134 30.8798 143.496 25.101 127.619C17.7462 107.412 30.906 93.3252 45.7907 87.9076C55.8041 84.263 64.4656 85.6056 65.2865 87.8608C65.3521 88.0413 65.4506 88.3119 65.4261 88.5251Z" fill="black"/>
</mask>
<g mask="url(#mask0_100_351)">
<path d="M499.964 247.77L492.878 259.293C492.166 260.388 491.429 261.003 490.471 261.053C489.991 261.078 489.406 260.917 488.811 260.563C483.357 257.388 470.987 250.635 465.937 247.823C465.341 247.47 464.726 246.733 464.681 245.87C464.656 245.391 464.822 244.901 465.271 244.301L471.918 235.397C467.175 238.433 462.891 241.061 461.023 242.12L460.463 242.438L462.185 258.786C462.246 259.937 461.529 260.936 460.378 260.996L441.26 263.055C440.205 263.111 439.207 262.394 439.05 261.249L430.919 183.135L430.909 182.943C430.859 181.985 431.676 181.077 432.63 180.931L451.753 178.967L451.945 178.957C453 178.902 453.812 179.724 453.963 180.774L458.207 221.407C461.977 218.134 477.824 204.998 482.042 204.777C482.809 204.737 483.692 205.075 484.524 206.281L493.159 218.807C493.573 219.362 493.795 219.927 493.825 220.502C493.875 221.461 493.345 222.354 492.225 222.989C489.888 224.265 484.58 227.524 478.993 230.989C485.815 232.746 500.349 242.27 500.535 245.818C500.565 246.393 500.404 246.978 499.964 247.77Z" fill="white" fill-opacity="0.05"/>
<path d="M417.022 214.897L412.51 226.513C412.126 227.665 411.07 228.625 409.918 228.625C409.534 228.625 409.054 228.433 408.67 228.145C406.942 226.705 403.582 225.649 400.222 225.649C397.726 225.649 389.374 226.225 389.374 236.689C389.374 243.121 393.982 247.345 400.222 247.345C404.35 247.345 409.15 245.521 413.758 241.297C414.334 240.721 415.198 240.241 416.062 240.241C416.734 240.241 417.502 240.625 418.174 241.777C419.902 245.041 421.054 246.769 422.59 249.937C422.878 250.513 423.07 251.185 423.07 251.857C423.07 253.009 422.59 254.065 421.438 255.217C413.662 262.609 404.446 265.873 395.806 265.873C379.87 265.873 365.758 254.737 365.758 237.841C365.758 216.337 382.942 207.601 398.782 207.601C409.438 207.601 417.118 211.825 417.118 214.225C417.118 214.417 417.118 214.705 417.022 214.897Z" fill="white" fill-opacity="0.05"/>
<path d="M372.247 265.122L372.901 278.158C372.968 280.003 372.569 281.232 371.488 281.856C370.657 282.336 364.069 284.365 357.656 282.858C354.629 287.599 350.715 291.188 346.475 293.636C332.591 301.652 314.475 297.922 306.747 284.537C300.987 274.561 299.75 256.098 316.211 246.594C320.368 244.194 324.97 242.756 329.029 242.298C329.191 241.428 329.796 240.746 330.793 240.17L331.209 239.93L346.312 232.873C348.57 231.791 349.776 232.536 350.352 233.534L350.592 233.95C353.796 242.187 356.808 250.092 359.976 255.579C362.856 260.568 365.834 263.615 369.311 263.492C370.382 263.428 371.585 263.399 372.065 264.23C372.161 264.396 372.221 264.694 372.247 265.122ZM344.384 273.117C342.886 271.099 341.376 268.868 339.888 266.29C338.64 264.129 337.427 261.836 336.153 259.246C334.196 258.159 331.279 258.291 328.868 259.683C323.63 262.707 323.648 269.459 326.096 273.699C328.784 278.354 334.331 280.473 339.735 277.353C341.314 276.441 342.951 275.052 344.384 273.117Z" fill="white" fill-opacity="0.05"/>
<path d="M305.916 297.029L297.34 305.135C296.347 306.07 295.409 306.425 294.548 306.485C294.165 306.512 276.22 304.494 274.861 285.054C274.05 273.466 268.4 269.723 261.504 270.205L261.026 270.239L263.456 305.002C263.537 306.151 262.735 307.073 261.682 307.147L242.528 308.486C241.379 308.567 240.457 307.765 240.377 306.616L234.899 228.279C234.825 227.226 235.62 226.208 236.769 226.127L255.923 224.788C256.976 224.715 257.905 225.612 257.979 226.665L259.72 251.565C260.862 251.388 262.011 251.308 263.065 251.234C281.069 249.975 296.184 259.697 297.797 278.638C298.328 284.856 299.908 289.558 304.862 292.964C305.47 293.403 306.59 294.287 306.664 295.341C306.697 295.819 306.546 296.407 305.916 297.029Z" fill="white" fill-opacity="0.05"/>
<path d="M235.153 209.832L234.181 209.419C232.237 208.594 231.504 207.865 231.611 206.138L232.074 194.237C232.098 193.934 232.122 193.632 232.197 193.455C232.76 192.129 234.602 192.703 235.663 193.153C240.914 195.278 244.439 193.854 245.339 191.733C245.826 190.584 245.278 188.682 244.716 186.567L243.455 182.903C241.443 176.834 241.465 172.359 242.89 169.001C247.129 159.015 263.784 159.827 275.36 164.741C278.806 166.204 279.54 166.933 279.483 168.786L279.109 180.724C279.135 181.153 279.023 181.418 278.91 181.683C278.498 182.655 277.376 182.596 276.227 182.108L275.873 181.958C270.571 179.708 267.789 180.612 267.038 182.38C266.401 183.882 267.013 186.124 268.796 191.261C270.985 197.405 271.065 202.131 269.639 205.489C265.213 215.917 246.995 214.858 235.153 209.832Z" fill="white" fill-opacity="0.05"/>
<path d="M222.171 192.823L219.875 205.672C219.526 207.485 218.86 208.592 217.667 208.957C216.749 209.238 209.873 209.734 203.964 206.822C199.948 210.76 195.327 213.378 190.645 214.809C175.314 219.497 158.501 211.787 153.982 197.007C150.614 185.99 153.562 167.722 171.739 162.164C176.329 160.761 181.137 160.396 185.194 160.862C185.549 160.051 186.291 159.523 187.392 159.186L187.851 159.045L204.155 155.567C206.598 155.021 207.605 156.018 207.942 157.119L208.082 157.578C209.351 166.326 210.508 174.706 212.36 180.765C214.044 186.273 216.261 189.912 219.676 190.574C220.734 190.753 221.913 190.995 222.193 191.913C222.25 192.097 222.242 192.4 222.171 192.823ZM193.223 194.345C192.218 192.043 191.248 189.528 190.378 186.682C189.648 184.295 188.982 181.789 188.324 178.978C186.661 177.479 183.789 176.952 181.127 177.766C175.343 179.534 173.842 186.116 175.273 190.798C176.845 195.939 181.773 199.251 187.74 197.427C189.484 196.894 191.392 195.909 193.223 194.345Z" fill="white" fill-opacity="0.05"/>
<path d="M233.816 133.94L214.664 131.589C213.616 131.46 212.864 130.497 212.992 129.449L222.551 51.6016C222.691 50.4581 223.654 49.7059 224.702 49.8346L243.854 52.1862C244.902 52.3149 245.655 53.2777 245.514 54.4211L235.956 132.269C235.827 133.317 234.864 134.069 233.816 133.94Z" fill="white" fill-opacity="0.05"/>
<path d="M207.774 102.689C207.774 121.409 188.766 131.873 175.134 131.873C159.486 131.873 145.758 120.545 145.758 103.649C145.758 83.8726 160.542 73.6006 177.438 73.6006C198.654 73.6006 207.774 90.2086 207.774 102.689ZM177.438 113.537C184.254 113.537 187.326 107.969 187.326 102.497C187.326 100.673 186.942 91.3606 177.15 91.3606C169.086 91.3606 166.782 98.1766 166.782 102.497C166.782 109.121 171.966 113.537 177.438 113.537Z" fill="white" fill-opacity="0.05"/>
<path d="M140.774 95.6886C140.774 114.409 121.766 124.873 108.134 124.873C92.4863 124.873 78.7583 113.545 78.7583 96.6486C78.7583 76.8726 93.5423 66.6006 110.438 66.6006C131.654 66.6006 140.774 83.2086 140.774 95.6886ZM110.438 106.537C117.254 106.537 120.326 100.969 120.326 95.4966C120.326 93.6726 119.942 84.3606 110.15 84.3606C102.086 84.3606 99.7823 91.1766 99.7823 95.4966C99.7823 102.121 104.966 106.537 110.438 106.537Z" fill="white" fill-opacity="0.05"/>
<path d="M65.4261 88.5251L65.1591 100.984C65.1923 102.198 64.5283 103.461 63.4458 103.855C63.0849 103.986 62.5682 103.97 62.1089 103.831C59.9926 103.069 56.474 103.225 53.3167 104.375C50.9712 105.228 43.3199 108.626 46.8988 118.459C49.0986 124.503 54.8734 126.896 60.7371 124.762C64.6162 123.35 68.5028 119.995 71.3883 114.449C71.7325 113.711 72.3802 112.965 73.1921 112.669C73.8236 112.439 74.6766 112.537 75.7021 113.39C78.4423 115.866 80.1158 117.096 82.6427 119.548C83.1103 119.99 83.5206 120.556 83.7504 121.188C84.1444 122.27 84.0545 123.427 83.366 124.903C78.5872 134.509 71.0433 140.728 62.9244 143.683C47.9494 149.134 30.8798 143.496 25.101 127.619C17.7462 107.412 30.906 93.3252 45.7907 87.9076C55.8041 84.263 64.4656 85.6056 65.2865 87.8608C65.3521 88.0413 65.4506 88.3119 65.4261 88.5251Z" fill="white" fill-opacity="0.05"/>
<path d="M138.217 111.463L68.6658 132.328C20.6444 146.735 -12.2417 190.935 -12.2417 241.07C-12.2417 303.771 38.5875 354.601 101.288 354.601H507.178C545.054 354.601 575.758 323.896 575.758 286.02V273.576C575.758 250.983 561.076 231.012 539.511 224.273C531.784 221.859 523.598 221.294 515.612 222.625L498.621 225.457C484.161 227.867 470.243 232.824 457.514 240.097L441.758 249.101L421.208 259.832C404.996 268.299 387.63 274.344 369.665 277.776L363.876 278.882C356.148 280.358 348.298 281.101 340.431 281.101H329.837C302.632 281.101 270.516 273.868 259.258 249.101C257.699 245.67 249.96 227.024 243.861 212.26C240.795 204.836 238.415 197.149 236.738 189.295L234.349 178.103C231.335 163.986 224.888 150.829 215.579 139.796L209.596 132.705C196.7 117.42 177.719 108.601 157.72 108.601C151.114 108.601 144.544 109.565 138.217 111.463Z" fill="#7694C7" fill-opacity="0.25"/>
<path d="M155.217 87.4631L85.6658 108.328C37.6444 122.735 4.7583 166.935 4.7583 217.07C4.7583 279.771 55.5875 330.601 118.288 330.601H524.178C562.054 330.601 592.758 299.896 592.758 262.02V249.576C592.758 226.983 578.076 207.012 556.511 200.273C548.784 197.859 540.598 197.294 532.612 198.625L515.621 201.457C501.161 203.867 487.243 208.824 474.514 216.097L458.758 225.101L431.518 239.326C419.742 245.476 407.128 249.867 394.079 252.36L380.876 254.882C373.148 256.358 365.298 257.101 357.431 257.101H346.837C319.632 257.101 287.516 249.868 276.258 225.101C274.699 221.67 266.96 203.024 260.861 188.26C257.795 180.836 255.415 173.149 253.738 165.295L251.349 154.103C248.335 139.986 241.888 126.829 232.579 115.796L226.596 108.705C213.7 93.4201 194.719 84.6006 174.72 84.6006C168.114 84.6006 161.544 85.5649 155.217 87.4631Z" fill="#47B1F9" fill-opacity="0.25"/>
<path d="M159.11 69.7068L94.0117 90.6654C43.2038 107.023 8.7583 154.3 8.7583 207.676C8.7583 275.565 63.7937 330.601 131.683 330.601H522.483C563.504 330.601 596.758 297.346 596.758 256.325V246.517C596.758 220.456 580.107 197.309 555.398 189.022C550.986 187.543 546.419 186.576 541.786 186.141L537.18 185.709C512.443 183.386 487.712 190.296 467.758 205.101L453.328 213.53C429.452 227.477 403.398 237.305 376.258 242.601L361.486 243.455C332.589 245.127 291.547 244.034 280.258 217.381C278.698 213.696 271.554 194.401 265.72 178.878C262.77 171.03 260.376 162.983 258.619 154.785L255.191 138.795C252.275 125.187 246.287 112.425 237.685 101.485L229.643 91.2567C217.404 75.6893 198.697 66.6006 178.894 66.6006C172.178 66.6006 165.503 67.6486 159.11 69.7068Z" fill="#47B1F9" fill-opacity="0.25"/>
</g>
<path d="M287.356 23.3037C288.296 22.8458 289.405 22.9092 290.286 23.4717L331.819 50.0029C332.804 50.6318 333.333 51.7751 333.177 52.9326L330.524 72.5674C331.014 72.4851 331.521 72.5249 331.999 72.6895C332.751 72.9485 333.37 73.4959 333.719 74.2109L339.863 86.8096C340.59 88.2986 339.971 90.0949 338.482 90.8213L309.085 105.16C308.37 105.509 307.545 105.559 306.793 105.3C306.041 105.041 305.422 104.493 305.073 103.778L298.928 91.1797C298.331 89.9559 298.643 88.5257 299.6 87.6514L282.494 77.6524C281.486 77.0628 280.911 75.9412 281.021 74.7783L285.685 25.7158L285.709 25.5225C285.863 24.5631 286.476 23.7332 287.356 23.3037ZM307.14 90.5127C307.134 90.5153 307.128 90.517 307.123 90.5195L305.636 91.2451L309.15 98.4512L333.155 86.7432L329.64 79.5371L307.14 90.5127ZM305.801 54.2773C307.247 54.078 308.76 54.2043 310.234 54.7119L310.697 54.8848C315.261 56.7196 317.704 61.7269 316.34 66.4531L316.19 66.9248C314.517 71.7853 309.333 74.4399 304.449 73.0303L303.978 72.8818C298.96 71.1542 296.294 65.6861 298.021 60.669L298.194 60.2051C298.708 58.9268 299.472 57.8166 300.408 56.9082L290.648 36.8975L287.175 73.4395L305.951 84.416L324.063 75.5811L326.974 54.0273L296.041 34.2686L305.801 54.2773ZM308.28 60.3857C307.345 60.0636 306.367 60.1481 305.541 60.5459C305.535 60.5487 305.53 60.552 305.524 60.5547C305.519 60.5573 305.513 60.5589 305.508 60.5615C304.737 60.9422 304.102 61.5973 303.76 62.4482L303.694 62.6221C303.046 64.5061 304.048 66.5593 305.932 67.208L306.108 67.2647C307.942 67.7938 309.889 66.7968 310.518 64.9717L310.573 64.794C311.085 63.0191 310.168 61.1391 308.454 60.4502L308.28 60.3857Z" fill="#E16060"/>
<path d="M79.5582 156.992C79.8253 154.799 81.819 153.238 84.0119 153.505C86.2048 153.772 87.7657 155.766 87.4986 157.959L80.2315 217.62L80.2015 217.824C79.8396 219.909 77.9013 221.366 75.7768 221.107C73.584 220.84 72.0228 218.845 72.29 216.652L79.5582 156.992ZM57.7671 171.229C59.0656 169.442 61.5675 169.046 63.3547 170.344C65.1419 171.643 65.5382 174.145 64.2397 175.932L52.865 191.587L68.5207 202.961L68.6838 203.086C70.3309 204.414 70.6634 206.816 69.4056 208.548C68.1476 210.279 65.7605 210.705 63.9877 209.549L63.818 209.433L44.9277 195.708C43.1404 194.41 42.7442 191.908 44.0427 190.121L57.7671 171.229ZM102.021 203.382C100.723 205.169 98.2211 205.565 96.4339 204.267C94.6471 202.968 94.2511 200.467 95.549 198.68L102.021 203.382ZM114.862 178.904C116.649 180.202 117.045 182.704 115.747 184.491L102.021 203.382L95.549 198.68L106.923 183.025L91.268 171.651L95.9706 165.178L114.862 178.904ZM90.383 166.063C91.6815 164.276 94.1834 163.88 95.9706 165.178L91.268 171.651C89.481 170.352 89.0847 167.851 90.383 166.063Z" fill="#8F8AB1"/>
<path d="M207.788 240.468C210.822 240.411 213.374 242.686 213.733 245.666L213.762 245.967L216.19 280.711L216.894 280.662L217.238 280.646C220.784 280.579 223.798 283.304 224.048 286.882L224.307 290.576L224.322 290.921C224.388 294.352 221.838 297.286 218.431 297.698L218.087 297.731L158.974 301.865C155.396 302.115 152.278 299.51 151.852 295.989L151.818 295.646L151.561 291.951C151.302 288.258 154.087 285.054 157.78 284.796L158.481 284.746L156.053 250.002C155.827 246.775 158.238 243.925 161.506 243.696L207.483 240.481L207.788 240.468ZM158.198 290.781C157.811 290.809 157.519 291.145 157.546 291.532L157.804 295.227L157.828 295.367C157.916 295.682 158.216 295.903 158.555 295.88L217.668 291.746L217.809 291.722C218.079 291.647 218.279 291.416 218.316 291.138L218.321 290.995L218.063 287.301C218.035 286.913 217.699 286.62 217.312 286.647L158.198 290.781ZM162.044 249.673L164.467 284.327L210.205 281.13L207.782 246.475L162.044 249.673ZM172.084 255.027C173.107 253.791 174.914 253.585 176.187 254.533L176.308 254.629L186.652 263.187C187.285 263.71 187.675 264.47 187.732 265.289C187.79 266.108 187.509 266.915 186.955 267.521L177.902 277.436C176.785 278.659 174.888 278.746 173.664 277.629C172.441 276.512 172.355 274.614 173.472 273.391L180.4 265.802L172.483 259.252L172.366 259.15C171.196 258.078 171.061 256.264 172.084 255.027ZM197.646 270.87C199.298 270.755 200.732 272.001 200.848 273.653C200.963 275.306 199.716 276.74 198.063 276.855L190.675 277.372C189.022 277.488 187.588 276.242 187.473 274.589C187.357 272.936 188.603 271.502 190.256 271.387L197.646 270.87Z" fill="#8F8AB1"/>
<path d="M355.845 66.4356C356.933 63.5754 360.754 62.9659 362.677 65.3457L362.863 65.5938L391.826 107.289L418.583 118.71L438.839 80.71L438.928 80.5527C439.386 79.7807 440.091 79.1834 440.931 78.8594L454.418 73.6602L454.713 73.5596C456.099 73.1456 457.603 73.5129 458.641 74.5195L458.856 74.7451L467.796 84.874L467.928 85.0303C470.589 88.3235 466.876 93.0372 463.005 91.0977L455.951 87.5625L452.105 129.963L474.756 137.683L475.091 137.812C478.436 139.264 478.224 144.228 474.605 145.303L449.328 152.809L449.133 153.98C449.009 154.728 448.675 155.423 448.174 155.985L447.949 156.218L435.514 168.088L402.491 165.282L359.994 199.256C356.685 201.901 352.073 198.262 353.876 194.429L379.709 139.539L381.183 129.693L354.977 72.7822C354.57 71.8978 354.499 70.8948 354.778 69.9619L355.746 66.7285L355.845 66.4356ZM362.972 189.192L399.679 159.849L420.062 143.417H384.516L362.972 189.192ZM409.255 159.835L430.241 161.618L425.617 146.645L409.255 159.835ZM439.595 155.896L443.323 152.338L443.614 150.592L443.671 150.313C444.003 148.932 445.046 147.821 446.421 147.413L466.88 141.337L448.681 135.136C446.934 134.54 445.821 132.827 445.988 130.988L446.404 126.396L439.595 155.896ZM443.784 84.1885L423.102 122.987L426.403 138.111L429.59 139.177L434 153.46L450.592 81.5645L443.784 84.1885ZM387.222 129.884L386.095 137.417H420.111L417.334 124.701L391.805 113.804L387.222 129.884ZM383.619 120.636L386.579 110.253L363.61 77.1865L383.619 120.636ZM454.427 80.0869L456.473 81.1123L455.278 79.7588L454.427 80.0869Z" fill="#E16060"/>
</svg>
