<svg width="214" height="64" fill="none" xmlns="http://www.w3.org/2000/svg"><g clip-path="url(#a)" fill="#fff"><path d="M69.354 20.508h-3.166v6.648a.366.366 0 0 1-.374.367h-3.228a.37.37 0 0 1-.374-.367V8.723a.364.364 0 0 1 .231-.34.37.37 0 0 1 .143-.027h6.792c2.28 0 4.038.503 5.272 1.51 1.234 1.007 1.852 2.434 1.855 4.282a5.83 5.83 0 0 1-.856 3.293 5.782 5.782 0 0 1-2.59 2.089l3.986 7.476a.365.365 0 0 1-.16.473.372.372 0 0 1-.176.044H73.23a.475.475 0 0 1-.397-.24l-3.479-6.775Zm-3.166-3.199h3.204c.842.05 1.671-.22 2.319-.757a2.717 2.717 0 0 0 .819-2.09 2.879 2.879 0 0 0-.772-2.13 3.237 3.237 0 0 0-2.366-.777h-3.19l-.014 5.754ZM87.121 27.312a4.393 4.393 0 0 1-.283-1.064 4.661 4.661 0 0 1-3.616 1.538 5.102 5.102 0 0 1-3.493-1.208 3.876 3.876 0 0 1-1.368-3.053 4.012 4.012 0 0 1 .397-1.953 4.04 4.04 0 0 1 1.288-1.525c1.126-.818 2.754-1.228 4.884-1.228h1.76v-.814a2.343 2.343 0 0 0-.515-1.58 2.008 2.008 0 0 0-1.61-.593 2.29 2.29 0 0 0-1.514.47 1.484 1.484 0 0 0-.53.941.362.362 0 0 1-.364.301h-3.081a.378.378 0 0 1-.356-.263.369.369 0 0 1-.014-.155 3.859 3.859 0 0 1 .743-1.882 5.075 5.075 0 0 1 2.173-1.652 7.956 7.956 0 0 1 3.133-.578c1.764 0 3.166.442 4.208 1.326a4.606 4.606 0 0 1 1.557 3.717v6.178c-.042.94.11 1.88.445 2.761a.366.366 0 0 1-.332.527h-3.175a.362.362 0 0 1-.337-.211Zm-3.066-2.433a3.328 3.328 0 0 0 1.561-.376 2.464 2.464 0 0 0 1.06-1.007v-2.451h-1.42c-1.915 0-2.935.658-3.061 1.976v.226a1.512 1.512 0 0 0 .506 1.171c.38.32.87.486 1.368.461h-.014ZM100.947 23.59a1.226 1.226 0 0 0-.696-1.1 7.947 7.947 0 0 0-2.244-.72c-3.404-.713-5.105-2.152-5.102-4.32a3.9 3.9 0 0 1 1.586-3.166 6.406 6.406 0 0 1 4.136-1.27c1.821 0 3.276.426 4.364 1.28a3.983 3.983 0 0 1 1.642 2.93.37.37 0 0 1-.102.274.375.375 0 0 1-.271.112h-3.096a.365.365 0 0 1-.364-.306 1.803 1.803 0 0 0-.511-1.044 2.255 2.255 0 0 0-1.657-.532 2.32 2.32 0 0 0-1.496.433 1.385 1.385 0 0 0-.549 1.106 1.167 1.167 0 0 0 .606 1.02c.632.341 1.32.569 2.03.674.821.151 1.628.365 2.415.64 2.022.733 3.032 2.01 3.029 3.83a3.712 3.712 0 0 1-1.681 3.152 7.28 7.28 0 0 1-4.345 1.204 7.655 7.655 0 0 1-3.199-.635 5.37 5.37 0 0 1-2.168-1.746 4.041 4.041 0 0 1-.771-1.98.37.37 0 0 1 .216-.386.374.374 0 0 1 .153-.033h2.906a.356.356 0 0 1 .36.291 1.874 1.874 0 0 0 .724 1.261 3.033 3.033 0 0 0 1.893.541 2.765 2.765 0 0 0 1.661-.418 1.282 1.282 0 0 0 .531-1.092ZM119.864 20.532c0 2.195-.502 3.954-1.505 5.274a4.811 4.811 0 0 1-1.782 1.493 4.85 4.85 0 0 1-2.279.488 4.469 4.469 0 0 1-3.512-1.501v6.347a.365.365 0 0 1-.231.343.37.37 0 0 1-.143.029h-3.081a.375.375 0 0 1-.369-.372V13.644a.363.363 0 0 1 .107-.262.366.366 0 0 1 .262-.11h2.84a.375.375 0 0 1 .374.334l.099 1.064c.436-.536.99-.965 1.62-1.253a4.526 4.526 0 0 1 2.011-.408 4.866 4.866 0 0 1 2.304.464c.718.34 1.341.852 1.813 1.488.978 1.299 1.469 3.088 1.472 5.369v.202Zm-3.829-.273a5.581 5.581 0 0 0-.71-3.072 2.313 2.313 0 0 0-2.059-1.078c-1.202 0-2.027.457-2.475 1.37v5.834c.225.458.585.839 1.032 1.09.447.253.96.364 1.472.32 1.827-.002 2.74-1.49 2.74-4.464ZM135.019 20.532c0 2.283-.489 4.063-1.467 5.34a4.861 4.861 0 0 1-1.816 1.463 4.89 4.89 0 0 1-2.292.452 4.507 4.507 0 0 1-2.078-.436 4.47 4.47 0 0 1-1.642-1.338l-.138 1.186a.37.37 0 0 1-.369.325h-2.74a.366.366 0 0 1-.341-.227.357.357 0 0 1-.028-.14V7.668a.367.367 0 0 1 .369-.367h3.086a.37.37 0 0 1 .369.367v6.888a4.374 4.374 0 0 1 3.483-1.543 4.922 4.922 0 0 1 2.294.457 4.882 4.882 0 0 1 1.819 1.462c.994 1.277 1.491 3.074 1.491 5.392v.207Zm-3.829-.273c0-1.44-.229-2.492-.686-3.157a2.325 2.325 0 0 0-2.054-.993 2.54 2.54 0 0 0-1.498.344 2.515 2.515 0 0 0-1.02 1.143v5.646c.216.481.577.884 1.033 1.153.456.269.985.39 1.513.348a2.376 2.376 0 0 0 1.552-.467c.446-.332.76-.81.886-1.35.219-.87.311-1.77.274-2.667ZM143.785 27.787a7.07 7.07 0 0 1-2.761-.438 7.035 7.035 0 0 1-2.37-1.472c-1.322-1.283-1.983-2.991-1.983-5.124v-.367a8.61 8.61 0 0 1 .833-3.84 6.132 6.132 0 0 1 2.366-2.606 6.66 6.66 0 0 1 3.489-.917c1.965 0 3.51.615 4.633 1.844 1.124 1.23 1.685 2.972 1.685 5.227v1.186a.367.367 0 0 1-.369.367h-8.756a3.511 3.511 0 0 0 1.122 2.24c.65.573 1.498.875 2.366.842a4.18 4.18 0 0 0 3.19-1.299.374.374 0 0 1 .545 0l1.391 1.543a.374.374 0 0 1 0 .47 5.795 5.795 0 0 1-2.149 1.643 7.675 7.675 0 0 1-3.232.7Zm-.436-11.706a2.413 2.413 0 0 0-1.85.767 3.968 3.968 0 0 0-.895 2.197h5.325v-.306a2.813 2.813 0 0 0-.691-1.962 2.48 2.48 0 0 0-1.889-.696ZM159.886 16.439a.353.353 0 0 1-.121.267.37.37 0 0 1-.281.09 9.477 9.477 0 0 0-.98-.056c-1.448 0-2.395.47-2.84 1.463v8.94a.37.37 0 0 1-.369.367H152.2a.37.37 0 0 1-.369-.368V13.644a.362.362 0 0 1 .227-.343.37.37 0 0 1 .142-.029h2.896a.376.376 0 0 1 .37.348l.085 1.35c.294-.59.75-1.088 1.314-1.435a3.563 3.563 0 0 1 1.881-.526c.305-.001.61.032.908.099a.366.366 0 0 1 .28.362l-.048 2.969ZM169.565 16.439a.373.373 0 0 1-.125.267.37.37 0 0 1-.282.09 9.477 9.477 0 0 0-.98-.056c-1.448 0-2.395.488-2.839 1.463v8.94a.375.375 0 0 1-.374.366h-3.086a.37.37 0 0 1-.369-.367V13.644a.362.362 0 0 1 .226-.343.374.374 0 0 1 .143-.029h2.896c.095 0 .186.036.255.101a.36.36 0 0 1 .114.248l.086 1.35c.771-1.308 1.831-1.962 3.194-1.962.306-.001.611.032.909.099a.366.366 0 0 1 .279.362l-.047 2.969ZM177.28 22.141l2.57-8.6a.38.38 0 0 1 .359-.264h3.314a.375.375 0 0 1 .367.32.38.38 0 0 1-.017.174l-5.599 15.968-.317.748c-.855 1.863-2.275 2.794-4.26 2.79a5.91 5.91 0 0 1-1.42-.174.377.377 0 0 1-.279-.362V30.53a.365.365 0 0 1 .114-.268.38.38 0 0 1 .274-.104h.379c.498.033.994-.089 1.419-.348.393-.263.689-.646.843-1.092l.45-1.171-4.804-13.776a.368.368 0 0 1 .179-.452.376.376 0 0 1 .171-.042h3.313a.382.382 0 0 1 .36.264l2.584 8.6ZM196.529 20.772v6.384a.363.363 0 0 1-.11.262.373.373 0 0 1-.264.105h-3.233a.371.371 0 0 1-.369-.367V8.723a.367.367 0 0 1 .369-.367h7.157a8.733 8.733 0 0 1 3.819.79 5.825 5.825 0 0 1 2.537 2.244c.596.995.903 2.136.885 3.294a5.462 5.462 0 0 1-1.941 4.441c-1.293 1.089-3.082 1.631-5.367 1.628l-3.483.019Zm0-3.2h3.55a3.522 3.522 0 0 0 2.404-.738 2.675 2.675 0 0 0 .823-2.108c.02-.415-.044-.83-.187-1.221a3.152 3.152 0 0 0-.646-1.056 3.102 3.102 0 0 0-2.305-.894h-3.639v6.018ZM209.199 9.593a1.886 1.886 0 0 1 .577-1.411 2.506 2.506 0 0 1 3.134 0 1.888 1.888 0 0 1 .582 1.411 1.874 1.874 0 0 1-.592 1.412 2.47 2.47 0 0 1-3.109 0 1.876 1.876 0 0 1-.592-1.412Zm3.696 17.93h-3.1a.371.371 0 0 1-.341-.226.375.375 0 0 1-.028-.14V13.643c0-.049.009-.097.027-.142a.366.366 0 0 1 .342-.23h3.1a.374.374 0 0 1 .263.11.354.354 0 0 1 .08.12.382.382 0 0 1 .027.142v13.512a.366.366 0 0 1-.228.339.372.372 0 0 1-.142.028ZM50.564 36.81c-.289-2.963-1.628-5.598-3.53-6.986a8.696 8.696 0 0 0-1.638-3.171 9.708 9.708 0 0 0-3.479-6.53c.321-.278.593-.607.805-.974 2.31-1.03 3.937-3.18 4.127-4.785a6.28 6.28 0 0 0 1.997-4.117 3.893 3.893 0 0 0-.355-1.854 3.49 3.49 0 0 0 .947-3.632c-.687-1.985-3.105-3.293-6.352-3.41a5.126 5.126 0 0 0-3.56-1.205 8.363 8.363 0 0 0-1.892.23A4.42 4.42 0 0 0 35.74 0a7.412 7.412 0 0 0-3.582.97 3.257 3.257 0 0 0-.412-.029c-1.614 0-3.223 1.106-4.042 1.764-.798.64-1.51 1.379-2.12 2.197a12.112 12.112 0 0 0-2.126-2.197c-.833-.658-2.447-1.764-4.056-1.764-.145 0-.29.01-.435.028A7.38 7.38 0 0 0 15.389 0a4.43 4.43 0 0 0-1.893.376 8.354 8.354 0 0 0-1.894-.23A5.14 5.14 0 0 0 8.081 1.35c-3.247.137-5.68 1.412-6.352 3.411a3.5 3.5 0 0 0 .947 3.632 3.95 3.95 0 0 0-.35 1.854 6.233 6.233 0 0 0 1.969 4.117c.184 1.604 1.817 3.764 4.127 4.785.21.368.482.698.804.974a9.69 9.69 0 0 0-3.512 6.53 8.658 8.658 0 0 0-1.637 3.171C2.184 31.235.83 33.847.547 36.811c-.285 2.964.543 5.697 2.2 7.438.296 1.481.91 2.882 1.798 4.107a10.654 10.654 0 0 0 2.717 6.22 11.12 11.12 0 0 0 5.983 3.538 14.496 14.496 0 0 0 4.775 2.96 10.534 10.534 0 0 0 3.48 2.205c1.294.5 2.676.74 4.064.707 1.388.03 2.767-.214 4.06-.716a10.533 10.533 0 0 0 3.47-2.21 14.552 14.552 0 0 0 4.805-2.932 11.116 11.116 0 0 0 5.968-3.552 10.616 10.616 0 0 0 2.712-6.234 10.442 10.442 0 0 0 1.798-4.107c1.657-1.727 2.471-4.48 2.187-7.424Zm-11.18-9.01a17.699 17.699 0 0 1-5.205-4.337c-1.87-2.211-.658-3.19 2.286-2.663a7.973 7.973 0 0 1 3.07 1.585 7.914 7.914 0 0 1 2.103 2.73c1.041 2.766.227 4.097-2.253 2.686ZM31.633 4.278a.252.252 0 0 1 .306.146.25.25 0 0 1 .016.122c-.08.762.383.668.473.532 1.212-1.473 2.504-1.812 3.65-1.713a.256.256 0 0 1 .227.286.252.252 0 0 1-.052.123c-.474.673.033.8.213.678 1.855-1.158 3.625-1.158 4.307-.687a.256.256 0 0 1 .095.197.253.253 0 0 1-.095.198c-.687.579-.303.87-.057.781 1.893-.659 4.482-.075 5.39.687a.254.254 0 0 1 0 .386 5.066 5.066 0 0 0-1.964 3.416c-.052.47.696.352 1.013.272a.257.257 0 0 1 .288.128c.018.033.028.07.03.108.028 1.077-1 2.263-2.523 3.293-.204.136-.175.47.288.47a.256.256 0 0 1 .252.256.252.252 0 0 1-.034.126c-.544 1.002-1.282 1.947-3.786 2.597a.256.256 0 0 0-.177.224.253.253 0 0 0 .144.246.252.252 0 0 1 .175.194.249.249 0 0 1-.095.244c-2.513 2.173-8.874 1.317-9.684-2.291a.263.263 0 0 1 .048-.208A24.175 24.175 0 0 1 40.63 7.09a.203.203 0 0 0 .112-.234.202.202 0 0 0-.212-.152 17.337 17.337 0 0 0-6.425 2.287 17.232 17.232 0 0 0-5.033 4.582.256.256 0 0 1-.327.071c-4.099-2.075-.729-8.252 2.887-9.348v-.02Zm-6.068 15.996a7.853 7.853 0 0 1 4.942 1.732c3.545 2.93-.52 5.006-4.942 5.006-4.42 0-8.49-2.075-4.94-5.006a7.848 7.848 0 0 1 4.94-1.732ZM7.65 14.086a.253.253 0 0 1 .218-.38c.473 0 .497-.335.293-.471-1.528-1.016-2.555-2.202-2.527-3.294a.253.253 0 0 1 .208-.24.257.257 0 0 1 .114.005c.312.08 1.065.174 1.013-.273a5.075 5.075 0 0 0-1.97-3.415.254.254 0 0 1 0-.386c.905-.762 3.508-1.346 5.392-.687.241.09.624-.203-.062-.781a.256.256 0 0 1-.095-.198.253.253 0 0 1 .095-.197c.705-.476 2.485-.476 4.33.682.185.122.673 0 .218-.678a.252.252 0 0 1 .05-.36.257.257 0 0 1 .126-.049c1.145-.099 2.418.24 3.625 1.731.109.137.573.23.473-.531a.253.253 0 0 1 .204-.274.257.257 0 0 1 .123.006c3.616 1.096 6.962 7.273 2.887 9.367a.262.262 0 0 1-.331-.07A17.223 17.223 0 0 0 17 9.008a17.327 17.327 0 0 0-6.426-2.286.204.204 0 0 0-.212.152.201.201 0 0 0 .113.234 24.122 24.122 0 0 1 10.55 7.998.23.23 0 0 1 .047.207c-.79 3.59-7.152 4.446-9.679 2.291a.25.25 0 0 1 .08-.437.26.26 0 0 0 .135-.247.257.257 0 0 0-.172-.223c-2.5-.664-3.242-1.61-3.787-2.612ZM9.5 25.114a7.905 7.905 0 0 1 2.101-2.73A7.963 7.963 0 0 1 14.67 20.8c2.944-.527 4.16.47 2.291 2.663a17.76 17.76 0 0 1-5.206 4.338c-2.49 1.411-3.304.08-2.253-2.686ZM4.36 40.486a7.847 7.847 0 0 1 .592-6.718c1.311-2.221 2.632-2.132 3.153-.254.668 2.59.427 5.33-.682 7.767-.97 1.915-2.182 1.266-3.062-.795Zm9.467 14.36c-3.143-.66-5.817-3.812-5.94-7.006.478-11.381 16.982 8.944 5.926 7.005h.014Zm.336-14.176c-2.769-1.59-3.512-5.481-1.647-8.676 1.864-3.195 5.618-4.521 8.387-2.936 2.768 1.586 3.497 5.481 1.632 8.69-1.864 3.209-5.618 4.507-8.386 2.922h.014Zm16.016 18.518a7.926 7.926 0 0 1-9.234 0c-2.74-1.882 0-4.046 4.62-4.046 4.619 0 7.36 2.164 4.614 4.046Zm-4.614-6.897c-3.55 0-6.428-2.452-6.428-5.477 0-3.025 2.878-5.471 6.427-5.471 3.55 0 6.423 2.45 6.423 5.471 0 3.02-2.877 5.477-6.422 5.477Zm3.024-14.557c-1.865-3.209-1.131-7.1 1.638-8.69 2.768-1.59 6.522-.273 8.386 2.95 1.865 3.223 1.132 7.1-1.637 8.69-2.769 1.59-6.522.25-8.387-2.95Zm8.723 17.111c-11.056 1.939 5.447-18.386 5.94-7.005-.119 3.194-2.793 6.347-5.94 7.005Zm9.466-14.359c-.876 2.06-2.087 2.71-3.058.795a11.745 11.745 0 0 1-.686-7.767c.525-1.882 1.846-1.967 3.157.254a7.87 7.87 0 0 1 .572 6.718h.015ZM72.946 47.858h-8.07v8.468H62.33V37.168h11.95v2.07h-9.404v6.587h8.094l-.024 2.033ZM75.559 49.072a8.425 8.425 0 0 1 .828-3.764 6.175 6.175 0 0 1 2.305-2.583 6.343 6.343 0 0 1 3.375-.908 6.08 6.08 0 0 1 2.593.483 6.048 6.048 0 0 1 2.14 1.535c1.205 1.343 1.808 3.129 1.808 5.359v.17a8.51 8.51 0 0 1-.8 3.735 6.057 6.057 0 0 1-2.296 2.573 6.356 6.356 0 0 1-3.422.941 6.048 6.048 0 0 1-2.594-.478 6.015 6.015 0 0 1-2.139-1.535c-1.208-1.346-1.812-3.124-1.812-5.336l.014-.193Zm2.466.286a6.062 6.062 0 0 0 1.107 3.807 3.74 3.74 0 0 0 2.965 1.45 3.763 3.763 0 0 0 2.966-1.45c.729-.97 1.098-2.33 1.098-4.075a6.057 6.057 0 0 0-1.122-3.801 3.742 3.742 0 0 0-5.902 0c-.743.917-1.112 2.291-1.112 4.07ZM100.156 54.92c-.947 1.113-2.346 1.67-4.198 1.67-1.527 0-2.692-.44-3.493-1.322-.8-.885-1.202-2.188-1.212-3.92v-9.273h2.452v9.208c0 2.16.884 3.242 2.65 3.242 1.872 0 3.116-.695 3.735-2.085V42.09h2.452v14.25h-2.334l-.052-1.42ZM108.179 42.075l.075 1.793a5.258 5.258 0 0 1 4.293-2.056c3.032 0 4.561 1.7 4.586 5.1v9.41h-2.451v-9.41a3.286 3.286 0 0 0-.71-2.277 2.846 2.846 0 0 0-2.163-.739 3.585 3.585 0 0 0-2.097.63 4.3 4.3 0 0 0-1.42 1.661v10.154h-2.452V42.075h2.339ZM119.779 49.086c0-2.196.522-3.956 1.567-5.28a5.31 5.31 0 0 1 1.767-1.429 5.34 5.34 0 0 1 6.312 1.148v-7.43h2.452v20.231h-2.253l-.119-1.524a5.027 5.027 0 0 1-4.094 1.788 4.911 4.911 0 0 1-2.282-.516 4.881 4.881 0 0 1-1.779-1.512c-1.047-1.349-1.571-3.113-1.571-5.293v-.183Zm2.452.273c0 1.618.336 2.879 1.008 3.796a3.272 3.272 0 0 0 2.783 1.37 3.593 3.593 0 0 0 2.021-.526 3.559 3.559 0 0 0 1.382-1.559v-6.544a3.596 3.596 0 0 0-1.387-1.505 3.621 3.621 0 0 0-1.988-.509 3.272 3.272 0 0 0-2.811 1.383c-.66.922-.989 2.287-.989 4.093h-.019ZM144.196 56.326a5.1 5.1 0 0 1-.345-1.5 5.467 5.467 0 0 1-4.08 1.764 5.08 5.08 0 0 1-3.479-1.19 3.866 3.866 0 0 1-1.022-1.36 3.835 3.835 0 0 1-.336-1.666 3.995 3.995 0 0 1 .409-1.942 4.027 4.027 0 0 1 1.295-1.511c1.136-.822 2.732-1.233 4.79-1.233h2.366v-1.11a2.736 2.736 0 0 0-.767-2.037 3.103 3.103 0 0 0-2.248-.786 3.604 3.604 0 0 0-2.201.659 1.96 1.96 0 0 0-.889 1.595h-2.462a3.363 3.363 0 0 1 .762-2.061 5.245 5.245 0 0 1 2.064-1.576 7.01 7.01 0 0 1 2.873-.579c1.652 0 2.944.414 3.881 1.233a4.432 4.432 0 0 1 1.477 3.411v6.558a7.959 7.959 0 0 0 .501 3.12v.211h-2.589Zm-4.065-1.853c.769-.001 1.524-.206 2.186-.593a3.636 3.636 0 0 0 1.496-1.543V49.4h-1.922c-3.007 0-4.509.873-4.505 2.62a2.215 2.215 0 0 0 .766 1.788c.557.453 1.26.689 1.979.664ZM153.161 38.627v3.448h2.674v1.882h-2.674v8.846c-.035.458.092.914.359 1.289a1.519 1.519 0 0 0 1.217.428 5.734 5.734 0 0 0 1.164-.16v1.962a7.016 7.016 0 0 1-1.893.263 3.072 3.072 0 0 1-2.48-.988 4.215 4.215 0 0 1-.833-2.823v-8.812h-2.608V42.08h2.608v-3.453h2.466ZM158.443 38.297a1.434 1.434 0 0 1 .364-1.002 1.362 1.362 0 0 1 1.079-.409 1.393 1.393 0 0 1 1.084.41c.249.274.382.632.374 1.001a1.316 1.316 0 0 1-.894 1.317 1.339 1.339 0 0 1-.564.067 1.397 1.397 0 0 1-1.079-.395 1.403 1.403 0 0 1-.364-.989Zm2.645 18.03h-2.447V42.074h2.447v14.251ZM164.089 49.072a8.437 8.437 0 0 1 .828-3.764 6.177 6.177 0 0 1 2.305-2.583 6.344 6.344 0 0 1 3.375-.908 6.076 6.076 0 0 1 4.733 2.018c1.202 1.343 1.805 3.129 1.808 5.359v.17a8.433 8.433 0 0 1-.805 3.735 6.038 6.038 0 0 1-2.291 2.573 6.358 6.358 0 0 1-3.426.941 6.064 6.064 0 0 1-2.594-.48 6.025 6.025 0 0 1-2.139-1.533c-1.202-1.346-1.805-3.124-1.808-5.336l.014-.193Zm2.466.286a6.067 6.067 0 0 0 1.107 3.807 3.743 3.743 0 0 0 2.966 1.45 3.761 3.761 0 0 0 2.965-1.45c.729-.97 1.098-2.33 1.098-4.075a6.06 6.06 0 0 0-1.122-3.801 3.725 3.725 0 0 0-2.951-1.444 3.74 3.74 0 0 0-2.951 1.444c-.743.917-1.112 2.291-1.112 4.07ZM182.098 42.075l.08 1.793a5.258 5.258 0 0 1 4.293-2.056c3.029 0 4.558 1.7 4.587 5.1v9.41h-2.452v-9.41a3.28 3.28 0 0 0-.71-2.277 2.842 2.842 0 0 0-2.163-.739 3.585 3.585 0 0 0-2.097.63 4.306 4.306 0 0 0-1.42 1.661v10.154h-2.447V42.075h2.329Z"/></g><defs><clipPath id="a"><path fill="#fff" transform="translate(.508)" d="M0 0h212.984v64H0z"/></clipPath></defs></svg>